<mxfile host="app.diagrams.net" agent="Mozilla/5.0 (Windows NT 10.0; Win64; x64) AppleWebKit/537.36 (KHTML, like Gecko) Chrome/130.0.0.0 Safari/537.36" version="24.8.6">
  <diagram name="Page-1" id="h3cII9JyqK84l53qxCSq">
    <mxGraphModel dx="836" dy="469" grid="0" gridSize="10" guides="1" tooltips="1" connect="1" arrows="1" fold="1" page="1" pageScale="1" pageWidth="850" pageHeight="1100" math="0" shadow="0">
      <root>
        <mxCell id="0" />
        <mxCell id="1" parent="0" />
        <mxCell id="QuMT_0o_VnBB8fyhdxgy-1" value="" style="shape=image;verticalLabelPosition=bottom;labelBackgroundColor=default;verticalAlign=top;aspect=fixed;imageAspect=0;image=data:image/png,iVBORw0KGgoAAAANSUhEUgAAAaQAAADRCAYAAACD1MbzAAAAAXNSR0IArs4c6QAAAARnQU1BAACxjwv8YQUAAAAJcEhZcwAAFxEAABcRAcom8z8AAFwNSURBVHhe7b0HVFRpmv//2/PbMxvm7MzOmf/s/DfM7ux/Z2a3Z3t6ZnZnOth2m7rNOSIqggKSg6gkEZEgGQNiAJUgQQUVkSSISBTJSM5Bcs6Z7/8+t6oUFBQEiirq/fR5T1u3Cqi6de/7fZ/wPs//4fgDN+5z4ykbbLDBBhtsLMAI58ZybvD/ABtssMEGG2ws4CjgBq9OcHFxwdOnT9lggw022GBDbMPf318kSBWvBYmeYDAYDAZDnFRUVDBBYjAYDMbCwwSJwWAwGBIBEyQGg8FgSARMkBgMBoMhETBBYjAYDIZEwASJwWAw5pDe3l7hvxgzhQkSg8FgzBGenp5QU1NDS0uL8AhjJjBBYjAYjDnA29sb33zzDbZu3QoVFRU0NzcLn2FMFyZIDAaDMUvIMvr222/x7Nkz3jpSUlLiR1NTk/AVjOnABInBYDBmAYnRsmXLEB0dLTwC3jo6ePAgE6UZwgSJwWAwPhIPDw9ejKKiooRH3tDW1oZDhw5BUVGRidI0YYLEYDAYH4G7uzuWL18+qRiJ6Ojo4EWJLCUWU/owTJAYDAZjhogsoydPngiPTA2J0uHDh3lRYtl374cJEoPBYMyA69ev82I0k3myvb2dFyWKKzH33dQwQWIwGIxpcuPGDT6bLjY2Vnhk+rS2tvLuOxKlxsZG4VHGeJggMRgMxjQQiVFMTIzwyMwRpYQrKCgwUZoEJkgMBoPxASiBYboxow/BLKWpYYLEYDAY70EkRuP3Gc2Wzs5OPqZEKeFMlN7ABInBYDCm4Nq1a3xq92zcdFNBoqSsrMz2KY2DCRKDwWBMwtWrV2ecTTdTSJSo7h3FlJgoMUFiMBiMdxBZRnFxccIj8welhJOldODAAZl33zFBYjAYjHHQpldRoVRxQWWGKKZEllJDQ4PwqOzBBInBYDCEiCowfMw+o9lCKeGUfUeWkqyKEhOkWTA6OoqRkREMDw+LfdDfHRsbE74TxnjovEx2ztgQDLp2GO9y5coV3k23kPMfWUrkviNLqb6+XnhUdmCCNE3Iz0snKy0tDY8ePeLLh5w7dw52dnawsrIS67C2toa9vT0uXLgALy8vREZGIjs7G9XV1eju7ha+Y9nk1atXsLCwmPS8sSG4dszMzPiAPYkTQ7CAuXz58rxl082Urq6u14kOsmYpMUF6D7SBLT4+Hq6urtDR0eE7Qa5YsQI7duyArq4uzM3NYWtrCycnJzg7O4tt0N87e/YsTp06BU1NTWzevJm/mXbv3o0TJ07g5s2bePHihUz29qcg9KeffgoXFxd+THb+ZHmcP3+ev3a//vpr9PX1Cc+abCMSI3HGjD4ELSyPHDkicxUdmCBNQk1NDZ9lo6qqio0bN/L7BKhsSE5ODgYHB4WvkizoAk5JScHFixexZ88ebNmyhZ94/P39+WrDssLjx4/574wxNfn5+fwE3NPTIzwiu4hSu8WRTTdTyFKiOWj//v0yYykxQRoH3aBkDe3atQt79+6Fm5sb6urqhM9KF0VFRbxbb/v27di3bx98fX2FzyxuqDcNE6T38/LlS97Sl3VBIjEiYU5ISBAekTwoVEDuOxIlWYgpMUESQp95586dkJeXR0BAAIaGhoTPSDfUFIxcEps2beIzeAoKCoTPLE5EgsQSPqaGLH1ZFyTygEiqZfQ2lOhAokQLy8UuSjIvSDRxkZuLblDyry/Wro5lZWU4efIkvvvuO9y+fVt4dPHBBOnDyLogibLppEGMRIhEiSwlafXaTAeZFiQK+hsbG2PDhg0SbbbPFZTue+/ePX4yItckpa0vNpggfRhZFiRywy9bvkIq73cqMySKKS1WUZJZQSIx0tDQgJycHG89yBLJyclYvXo1HB0dF92eFCZIH0YWBYmuBxKjFStXcpZRrHAfn/DJGTA2NoK+/oFZX1/DQwMYfG9YYAyDff0YeWvRKMq+W6wxJZkUJMqUMzU15dOkad+KLEL7qVatWsX70hcTTJA+jCwKEi9G3GeOT0zCaEsOLl27ivK6NuGz02egqQhHz15BQ9fstlQkhnoiJCwMU0tSL27ZuCK35N3sOhIlNTU1XpQWW0q4TAoSbWolC2GxB/g/BJVHoZt0MX3fTJA+jKwJkkiMRG663rqXuHP/Hmqbu/jHU1Gam4XnWfnCRwKG2qvhcjMILX2zS3q6aX0YljY26Bc+fpd2aHy1DU/Ta4SPJ0Ip4SRKlIS1mCwlmRMkqmjw/fffIzw8XHhEtqGEDkpzXywXNROkDyNLgiTa9JqUlCQ8AvQ3lyDqaQya2if//BnxYbA8dRLGJ8/g/tM04VEBw10N8A+NQ2dnM9ITHiEuo4g/3teYg8uBwWhua0VFdhz8b4fioq05zG0uoaisAg/83HHc0Awh8Xn8673t1HDW3h5UK6O1ivvZc7YwPn4Mdhc9UdlKG5Z7obdsN1ycLsL6zGlYOV1DSUMn/7MiaH8hue9IlBZLTEmmBIniRkePHsWxY8eERxg0KdGeK6pqsBhggvRhZEWQRNl0VG1lPC0Z/pBXPoS0olrhEQGZcSE4pqsFY4uzcPcKQEbBu7Hl3spk/HaDOsoqc+FmdRjmV+7zx1tzvPDrHQc48SmFn60y/rhaEYF+ntBV3IMN2+RxzfMW7C1NsHv/QZRxZtFtJw3YOjqhf6gXVrpqsLl4BTfdr0FNfjfMHa5zQjUG3W++xYHDxrjl7Qmdwwo4ZuaIt78x0T6lxSJKMiVItEqitOfy8nLhEQYREhLCb6BdDOeFCdKHkQVBErnpJkvtbs25hyN6OsgqnegVCL5uhV/9x2+gZ+eJzik8cn3VqViy9xgqqwtww0kXdp6h/PH2/AB8rqiOkooyBJzXgbK5G388P/gStm3XRRUZNz2voHFoIx63AIEumrB1cMDA2CjyMrPR3juIkaE+uJzYC0UNXdDLDZZ/B++QTP73ZEa644jKTlRNUiiGRIksJdqnJO2iJDOCRIkMVHTz+PHjwiPzy0B/L7p7pKNWGKV/k9vO09NTeER6EacgjVG19+HZZSkOctdJ34B4i5wuZkGi7120r3CqfUZTCVJvdweqinLgedkBBzhLxtb1JsrqJyY+vBakqnx4OGjD8dZj/nhX4V18wQkSWUjB14xg5naHP54deAn6Ry+jllOY7vpi6GnK4XGzUJA4C6lvsB9+btbYv1sOppaOUNm7FhqGx9HO/ezxlXsQ80Jgpb147IGjR/egfIqgkyjRgUSptnai5SdNyIwg0cqBipBSyvO8wpngSVEP4GRrCXMLG/gEPkJds6CW3MjQAFrbO2Y0Wfb3dKK9Z4Az4OcXKqOira0t8XXvqIIG3XxTIU5BKk1Pwk1uNf1xy44RFGfE47yDDRwvXEZasfhqlUmLINF3OJP3OF6M3rfPqCXrLg5pqiOjZHJrgu7T5toK3Pa6Aa8H0cKjAkSCVFNXiqu2GlA/7Ybm5ibE+pzBv288wFlIpbjndhSGLrf412cEnIO6xjlUc7dVZ10hNFS2IbIJuO1wBGcdHFGa+wSffrseYQmZKCkuhIX6Nsir6POCpLd0GyISBDGq5LAr0NLaPqUgEXSuaCuLNLvvZEaQyF1Hac7zXRw1LtARm+UOwNX9Jvy93aG0dQ0UdazQ3DWC7ppYmLv5CF85PR4HOMErqUT4aP4gdx25MyV9Txa5JyjeRS1AJqtWLVZByngOLyefjxKk2qzHUD+wH05Xb8Hrsg22KOqgvEM8hXulRZDIcg8NDeUTEyorK4VHp4Y2e39IjIj2gnAYnzZHfiWnDDOkvyYNX+7WQ313F9JiAzmLRAGWDk6wPnUMXymbcEJVjce+NrD3DOZfnxfqBXNzT9R1cYLRVAZzUw3EtwKhHma47O6OzvZaGKip4ISZBS5cOA/1/Vuhe8YF9ZwonpXXRFy6wI2eGesPCwst1AzwD6dEJEoUF5ZGUZIZQaJq3dSqYb45rbIS+ldDhI+AwboC+HnfQWV9I26cVsCv/ncFfEIp42cUmQkROO/sCHs7Z0SnClZCjeWVeHTzLnx9r8D7uid2rf4c3ynpIS5z/vdLkWC/HQCWNGiSoj5UP/jBD6CkpMRPWOMrTohTkJqqy5Ec9XzCXpLhwS7eBUNlmt4MZ+RNmPzG4GFlBgMTF6Hl2w+LI9twKVyQgTXfSJPLjvbL/fu//zvfUpzu4amqXl+6dIn/TOOz6aZiqKcJRSXF6O77iAVAcxb+vFMTFa2Cc1db+hKPnyaivbMDueU1fOJUc20pyl8J9gd1N73iLJ9XIK/syGAviovz0MZdME01xaiqruZfM9rbgtjocKS9LEMfJ3RlpWXo6B9AeXY+2joFy53O1jqUlOShfxrFVSglXF1dXSpFSSYEiSYsak7m4OAgPDJ/vAjxwIb167BfRQcX3X2QVSbyU3fj8kkFfPLF97gdmYy0J/c4810Fzuec4WBhjB3b9qGstRdJd29g6T/+AacvXeYFae+6JVhzWF8sgkTFV4OCgoSPJBeykr766iv+wv37v/97vuUzJWYQtDoWlyAl3PXCga8VMd7JSYJ018PxrcZ4riisbhG+gujGyRPGOOYsiDNguB9+p4/C5FyE4PE8Q4JEiw9pqdJBfcfou6ZB75ssJqrtJoIekxjNtzu+tSQV5tr7sEXHDl0Ds9uHNN9QmSHRPiVpEiWZECTqjEmN62hDrDhIj38Mx7NnoKt1GGtWfwcjW090cKZ2XaYH9pk48q95VVaElwUV/L9bq7Kw85v/wqPCeiQGeuDg6oO8D5m4euYQHKOzhI/mF0qJp1pZPj4+fLuKW7duSdyg90U9nmj1J7xw+fHTn/6Ub2ZmYGDAN1IUB8+DA6C+TovPiBIxOjKAzOQn/D63iMhIRESEc1ZcPBrbxlsjbThudAwGbkLx5wQp2NoIRvZvLOv5hDaEf/bZZ3B3d5fY71k0qPI+dbj9yU9+8vq7/r//9/9iyZIlfCYdNapct24dnj9/Lvx080dPYwXCQh4iv1w69uyRKFFcmBKWyLr08/Ob9BxPZ9CcQCMra37nIpkRJNp7NO9ZZIMdeBT+9PVegd6uFhQ+9cPyjTsRGJ+LV+nXsMfAin+uoTwDZjoqUFJWh4XVWWxa+VtEltQj/o4v9LYfe72D28V0P6xDkiCOtSxlIFIFC9FeLZrcJW3Q+6KyT9SAUHjhvh4/+9nP+Mlp27Ztwk80v0wmSGQh+V+2hqmJCU5yE+nJkyYwMjqH/MrxVeQHYG1oCkNbYY+qsSFcM1aFhbt4qk9Tr6xf/epXvAubvvPJzrOkDENDQ36R9A//8A/vfN9kGVNbFergLA3ux4WArMf//M//5F14dD719fVnPGg+oP+TFWpkZCT8zfODTAgSuSZolUUZOPPKaAeO790Ky8u3Ud/Uit7eHjTnRWHbAUUEJeSgNs0D646Yob+jBpamyth45BQKuMkhJyUKm774BCH5tXgW4AONjXoQVcpyPiEHQ59w9AzPf2VuCoZSbTvyQUvyaGpq4l0RwgsXP//5z/n3TokZ5LqjSUocLruk+35Q+U5tgiBxfxj9fT18JmA3N0ny/+/uxfDIxO8v/KYjNDWOobixFc3VeVCV34gHmeJJ16UGfRSToeock51fSRoUk7lw4QJvFdF3/aMf/YhfdFDskDJCqZYbbQylfTjkyp1P5v+Kmlu8vb35RKWIiAjeWprtsLW15RcH84lMCBJNTnRRm3Cr1vmmNPkh9u/YgiOautzq2BgHD8jD+rI/ern30F4aj9Vb9+N28GM88LuIHXJKuOR+DTanjbB1/Srcz61F8oO7MDlo/jpzK8zDGnvVDBCT9uEso9lCVkdkZKTwkeRC1yclNfzyl7/kJyKKiYig58QVQ0oPv4/jckZ4f0W0yRlpLYOdkS409A1hckIbujY30COmkA6dr5UrV2Jg4AMpWxJAa2srli5dih//+Mf89/rgwYN3mmdSDzOylmiynA9Rai4rRV5WEeZ/STh3kHuNGhDOZYk0cpGSpTWfyIQgEWFhYWKLLYz0tSMpJhwBQQ+QUzY+oDiG/JRneBIr8MMWZSYi8H4IKuo7UFdWiJK6VrS8qkFuat5rF93oQAfinjxGRt78JjXQapNWzXl54sn0+lj6+/tx6tQpPgGDMrDeRpxZdu31r5Dz/CVfj+yj4L7bhCePEBWXiiExLr+lKcuO+neRS47iH+OzKd9GJEpkLZGIzRUjw/1wPaEL+Y2qqGju4CwFbnAWcFlJMRo7BI71npY6ZKVnobZl4vkc7mnHy6xstPRMFNCasgLkFlcJH809JEbffPPNnC8uycPEBGmOKCkp4TN0prOfQRYhwZaGcvYkSOMtorcRpyBJK9IiSPQdlpaWTtvqIVcuXcPKyspzJkrDg004vncD/vjJEoRmleOB72VoG53AabvziE3IQkJ4AE6amOKM+SnoaRvgUWIh/3NFWc9gZmSAU6dPQf+4EaIyyjE00IVHNxxx3NgMp0yM4eh+F/Wdc2ulUgICLSznw9PBBGkOIV8+BXFpvwLjXSgGY29vL/UN+5ggfRhpspBmCu1TmltRGsJ1M2OoyR1HS+8gLp9Rx5rduniRV4768kL4XLsA7wexeFVbBV97Vew57ozmmnKc1jsEPVtPFJaWwO+yA7yDnyLpsQ92yCvheU4xyvPToXt4D67ef4K52g5NYkSWEcWM5gMmSHMITVCBgYF8wJtW2Yw3FBYWYv369dPaVCjpMEH6MItZkAiRpTRX7rt7Tk4w13Tm/33DVg8m10TWxwheleXh0T1/XHRxgqrc99igeQa5zyOhdngzUsZtPevv6UCAmQp++dlXOHJEBSpqalj2P/8BZevr6JyD4JTITTefbXWYIM0xlFW0Z88ePief8QZK/dXT05v3skrigAnSh1nsgkSQENG+NEp0mK0o3ba1gZmmE//vm3Z6MPWM4DPumktToKeyGyYON/A8LRN+5/Sw28AWeS+ioXx4AyKrBN6G/pYSRMfFw8dcE7tUzfGyoAjFxUVISU5EfkUdRmZ5qXp5efFuuvnu8cYEaR64e/cu1q5dy2JJQui7pvMhjo2F4oAJ0oeRBUEiqJrDwYMHeUtpfGWHmRJ6zQ6Hdx5AQXUjXC3UYXAlhBek4ufB2LZ5GZxuP0N2Xg5sdHbjq9366Gyugau5AXQt3PA8+TkumGvD0u02nsfch5ycIsKSMpGTmwEzA30EhCfNKnuPxIiy6ebLTTceJkjzALnryBqgldNkxTllCXJt0CbSxdKcj2CC9GFkRZAIso5IlGYTU2qsyISx2m44+z9G0F0v3IpOE2RWDnXjked57JPfCy0DY/gFeOGEjTu/ZaOnuQLOp/WxZ8cuHLdyRU27IHnhRbgvjijtx94DCnC4FojW7o9vPSKyjB4/FrTAmG+YIM0T1dXV/ERsbW0tPCJ70KZDuknpAltMExMTpA8jS4JEtLS08KJEWwXo34sB2vRKYvTkyRPhkfmHCdI8QjWZ6KakytGyhijjcPfu3VLbN2UqmCB9GFkTJIK8ARRTOnz48JwkOiwkogQGutbFCROkeYbiJhQ/oY2WVKJEFqB9RnRTUmfJmpoa4dHFAxOkDyOLgkSQKNHmWbr+aSOtNDJfm16nAxMkMUCVj6kuGk3QlP68WKEJOjY2lp+syTqS1hvyQzBB+jCyKkgEuexElpK03QNUHHq+Nr1OByZIYoJMeCq+SvW9rly5wqeHLyao6Cj1lKGVFbUcWMzWIBOkDyPLgkRQ5Qdq7kiiJC0xJdqqQtl0C1lrkgmSGKEJjJq7Ue8QKjJ68+ZN3nqSVqgAJcXJKINuzZo1/M0nzZ9nujBB+jCyLkjEeFGaTUq4OKC5aKHFiGCCtABQ7ySq6EBZeFTUkeJLtHcpPz//nSrDkgZNMBkZGbyfmRoSbt68mc8uiosTT58dSYBSYGlBwZgaquso64JEkBCRKEly9p3ITRcdHS08snAwQVpg6DzQxC4nJwdFRUW+1YGxsTH/xdy5c4ffjEZxGSq5I86RmJjIvzcqiEpVkJ2cnPhqC/T+SICom+qZM2d4cZI1KA32z3/+M2/tTnbuZH1QIg+5f7744guZSeR5HyREdG+TMElaTEm0zygmJkZ4ZGFhgiQhUGsGEh6KL1G3UtpYq6WlxfesJxGgTbbiHvR36eKgFsX0fihGRKZ9SkqKxFty8wm1z6AGbqKmbZOdO1kedM1Q+Sw6P6ymowASIlrIkShRJp4kIEmWkQgmSBIKTfiUPk0nr7i4mHfniXNQLIjcLlVVVXxCxvv6xMga9N2UlZVNet7YeDNo/xm7bt4gEiWylhbaUhKJkbgqMEwXJkgMBoMhJsbHlBZKlK5fvy6RYkQwQWIwGAwxQu55EqSFSHQgMaJsOnFXYJguTJAYDAZDzFBKOAkSWUviEiWRGElSzOhtmCAxGAzGAkCiRHuUKK4034kOIjedpM+7TJAYDAZjgaCEIbKS5lOURJaRNMy5TJAYDAZjASGXHYkSZd/NtSjRNg2yjMTZQmI2MEFiMBiMBUZkKc2lKElDzOhtJgjS2NRbBqhs18cW7mKCxGAwGB+gs7OTjymRKNEexNlw7do1qRMjYrwg9bWUwNvvNmpau/nHAsaQEHYbAQ9j0P2Re/OZIDEYDMY0IFGiLsuzsZRIjJYvXy41brrxjBeksdFOmB7cCrNrj15bQ5mPvbB8xSr4Rn58yTImSAwGgzFNRKL0MYkO1PpFWhIYJuPtGFJZQiBWrd2N/KYBNBc8w8alX8DE7R7/XHVBBny9buLuw2g0d4nMpTHkp8XD8+YNPHwcj65B4eFxMEFiMBiMGUAp4SRK1Ohvuu47Dw8PXoyePXsmPCJ9vJvUMIhLRgo4qHcK6jtXYK+WPTo4c6kgKQzGOtrQ1FSDkpIqLJ08QGV8c2P9oKmmACVVVezdsxvHbfwwIvhFr2GCxGAwGDOEEh0opkSi1NDQIDw6OSIxogLN0sy7ggS0VbzAl5/+G77ZeAiVrZzJ01mBA5tWYLeKIVIysxBwxQ4rV69FciuQGGCJ9TvkEPmiFO11pbhzN4oJEoPBYMwFJEpU0eF9okRiRKndktJCYjZMJkj9XY3Q2L0E5x7l8o+rnvphzfLvcVDtKE6dNIW+jiYMTtsgs3EUY/1teBLsjxN6WjhqaoO6SYrNM0FiMBiLjG44nVTFhkOnUd8pXIOPtMP/hhPOeoUJHs8R73PfXb16VapjRm8zmSA1lCRjx9LvkdkkOM8lj72gsFcHoXF5qKwsR1TYfQQ9yUR2YjCMLR1R2jyImvJsHJPbAnvvFP5nxsMEicFgLCoG6tJxVGktfvhPSxCdWsQf628ogemRfbDxedM9ubenC70Ds+8d1tXVxfeXokQHUZVwEiPKplsMlpGIyQQpN9YbK+QM0CXcljTSV4eTemo4on0MZyzMoKyhj/jiTgzUZ+MIJ0J7D+nA1tYK+/bvQ0RWneCHxsEEicFgLCryYwOge9QYqgpysLziA5KcuoIkKO/bjIjSHowNtONJcADOnDKGha0zkrOrBD84C0iUqCEkWUtubm5YtWqV1MeM3mYyQaotTsXj5CzhIwFDPU2IfHAbPn73UVbX+jotvK+tDqH3/HDD6w4KaibPUGSCxGAwFhXh7tbQOWqCrPQY7NqtgYrWXuQnBENu/V50YgQPrlli+3YFuF69ASeL49i6SxllHZPkIM+Q7u5u7N69G7/+9a8RHx8vPLp4mEyQ5homSAwGYxExCJdThtAyceP+PQatXVtxKyIJj/zPY7vOefTXpkH5wCEEJ1YIXt1Ri6MaO+CV+v5MuekSGhqKLVu2CB8tLpggMRgMxkzoqoDJ0SOw9I7kH8Z4WUBexxxOhqo47RmPgmhfHDlhifw2/mm0lGdDafsmRJf3CQ7MkrCwMOzYsUP4aHHBBInBYDBmQMPLOGgePICgpGr+cV/dS6z6fDnWr1sF/4xONGWFQm6fIgITSjDY0wgnIyXIqZ9B39sbYj4SspC2b98ufLS4YILEYDAYM+BlXCC0tQ4hu1UUSh+BheJG/O/SNXjZzj0c6kOYrys2ff8tlq1ci6On7FHS2CN46RzABGl2MEFiMBiLhuGhAfT0dmN8c4TBvm60t3e9zvbC2DBamurxqrYevQNzZBoJYYI0O5ggMRgMxhzBBGl2MEFiMBiMOYIJ0uxggsRgMBhzBGXZMUH6eJggMRgMxhwRHh7O9iHNAqkRpMzMTMjLy/MlOdatW8cGG2ywIVFj7dq1+N3vfscspFkgNYJEvtmNGzfC19eXb3JFLYDZYIMNNiRpUDHVkpIS4ay1uKD260yQhJBvlk7Gx/ayZzAYjMVKX18fioqKkJqaOm9DR0eHb0o4n0iVIKmpqaG2tlZ4hMFgMBhEcnIy1qxZg9WrV/MFXql80VyPlStX4vz588K/OD9InSC9evVKeITBYDAYxOPHj3HgwAEkJCSgvr4eNTU1cz7IGKCK5vMJEyQGg8GQckiQaH4k4ZBmmCAxGAyGlEOCRA0Cy8vLhUekEyZIDLFBgVdPT0/k5uYKjzAYjLmACZKYYYIk3ZAYmZqa4pNPPsHBgwel/sZhMBaS0dFRVFVVobe3l39MczbNj3V1dfzjlpYWqUwAY4LEmHfopjl27Bh27drFW0dmZmb85kG6+BgMxswZGRnh9wUpKSkhPT0dwcHB0NLSwosXL/DgwQPs3bsX0dHRwldLD0yQGPMKWUYkRiRAIqtocHAQx48f549VVlbyxxgMxsyorq7GL37xC/zkJz/BihUrsGTJEnz99df8hL5+/XoMDQ0JXyk9MEFizBskPCdOnMDWrVvfcdH19/fDwMCAiRKD8ZGQ247K+Qgn8Nfjb//2byVyDp8OTJAY88Lw8DAvRu8THHLlkSjRpjsWU2IwZg7dW5999tkEQaKNsdJoHRFMkBhzDomRyCX3IaHp6el5bSmVlZUJjzIYjOkwNjY2wUoi6yg2Nlb4rPTBBIkxpwwMDExbjERQnEn0M0yUGIyZQffM559/zk/kCgoKrzPvpBEmSIw5g26Eo0ePfpQLTuTi27ZtG0pLS4VHGQzGdLh8+TL++Z//GSkpKcIj0gkTJMacQK43kRjRRfUxiFx9JEosprQ4oMB7Wloabt68yU+abMz9oHOrp6fHZ9lZWVnBw8Nj0tfNxwgMDERXV5fw2549EitIlKE1XnyoEyMJkmjjF9HY2Cj8F2MhoYw5kRjNNmOOgrEiS+ljhY0hOdBChSoI/OlPf+KLf7Ix92P//v38fiRVVVV+0zk9nux1cz2oYerPf/5z5OfnC7/t2SPRgnTjxg1+oqOGV9T4ilYBJEIkTrS3hbrIMhYW+p7ouyAxop3jcwHFoUSixGJK0k1HRweMjY1x+/Zt4RHGYoI6eOfk5AgfzR6JdtklJibi7//+7/H73/+ebw9Mm7+oa+w//MM/8H0/pDl4txgga0aUtj1XYiRClOjAYkrSTWdnJ4yMjHD9+nXhEcZigRaOy5cvx8uXL4VHZo9ECxL5n2lSEr5B/OVf/iX//7/+67+WyDiXLDFejObLtSYqOUQba5koSSeLUZCG+roQG/0QeU2zWxB3lOchLi4TXX0jwiMTGRsdQXpyLDIrmoVHZsIYCvOy8DCes1766hEX/wwNrVP3MqrNTEZMQh6GR4UHpoHMCRJBdZr+9V//9bUo0dizZ4/wWcZCQNaLvr4+du7cOW9iJILiUyL3HbluGdLFYhSk3vZGnLM7gUdFrcIjH0dp8HXo6jmjorFPeGQio0N9sDfTwPmIPOGRmTCKx6GBMLx0H8O1cdA9povkvGrhc++SdccDjpdDMTAsPDANZFKQaOMXrZKFbxI//OEPuVVFnPBZhrihIDXF8kiMxFXyh7LvaFJjlpL08TGCNMJZ37U1ZSiuLMezmCi8yC1FX3cHsl8kICYuCa09A8JXAjXFuYiKikJSShZeGxpjw6gozMaTJ9GIjk1EQ4fAkmlpb0FucRFy05LwOCYOtS3vWgy1FTmICH2ER4/ejBcZhdz0/oaRoQGUFOagqX8YLa9eobpCkGg1NjqI8qKX6BwcQmdzOypyi5H3MhVRMfFobO9FXXk+nsQ8QW6JoIle6b0rUNOwQ0Uz93lGBpCXkYKo6GjEJaWho2+I05RBnDVWhplXGBLjn+JpfApau998dgGjaGxtRl5RIXJSE/H4aTzq2wSft7H+FXJKa9FTEgE1bTUk5QoEqar4JZ7SueFeW9MsyJDrqClHUVk9Rsf4h9NCJgWJICvp3/7t3/g3um/fPqktiyHtiMSIqnbPdczoQ1B1YwqOT1YXjyG5fIwg9bTWQ1dlC7ZrGUFHVQnrNu/GSTMLnDHVx/YtW3Dc2od/XU5iKAw0VPgsPm0tHVzwecgtYIeQFB4AFcUDUFVRhvzePVA1dEX/yBD8vJzxm2XrYHXaBPv2bMVBXQc0dPXzv0tEUoQHDu+T56tl05CX3wsH1zsYbzh0N7/i/u4OPKjtQICFBUzU7fnjQz21UN30B8RUteKp9w1s/GQlzM5aYP+ODTioYQxraxso79+OPYrqSK1tQ334TWjpuKC8rgNPA87hoJIqlA4fxtZNm2HvEYyu/hHYGx3EWgVVnDiqgU3rN+C0yy20946Xx2FcdrXCJ8s3cJ/LEHK7t0L5uCt6OLG463sV242vYrQ+Hpp6WnhRUI2qjDCoHDoMDeXD2LdjC7TNnPCKE7C0q1bQNvUC6eB0kVlBImgy+tnPfsbvaWCIn/FuOqoyvBDQQoQmty3cpMSy76SDjxGk3rZ6qO3fCuNLUfzjG2Zy2HRICz3cvxtePsWObw6jraMRBoe3Qc3cBY2NDXgefQffr/wWcSV1SHoWjZR8wZaRhpfh+Pq/N6KyrQN+F63w1XZ9/vdgrAbb/7wZT7MnLqw6Wl5xVk0GsnNechNtDjIzslFZ3YDxhgMJ0jHNXbwg3bGygpm2E398qKcOGts/R2x1B2I8HbDtm12oIb1rS8Vnf1iGoLQG7kErzpoqwdY/Hm0xvtDWcUZRVRMSHt9DaRv/axB70wY79x7Dy4o22Bsq4vBpT/54Q3IQDu/XRkJhB/9YwCjczhjiWzlD8NLaX4atf96Gwuo6BAVcx06Ta7wgaelrIfllBQpTnyAuR2DRtWaHYOv2rQhJLkaupyN0TnovfkGitGBa0VLGHG1uvXfvHp8COpNBm6/Ibbd06VK4u7vj7t27k75uqnHnzh2+XwiZ9mRtNTTQhcGYLnThLbQYiaCYkqGhIXPfSQkfI0hdzTUw0leGV4JAVLzsD+Cs+1WQR64mJw4aqzVQkpsGra1rseuQDhzsbWF20hTaulqIKm5D16sCOFmeguHJ07C0MsaKT9ajqrkNXh6XsP/kVf53Au3QWbITMWkTY6Dpz27DUE8ZWtq60NXV4awsLVzzDuX/tggSpONauxHMC5I1zHVd+OMjfQ3Q2vkFJ0htiHS/BMODpwQ/15KHr3fooKiFpLAeTvZanCA9Q9sTX2hqO3LvbQC1ec9hYXwCp886wERFDrv2ncTLkiacP6MJ5xBBWnVnagROqJggNmf8/stBnHd2wGHLm/yjsdFGaC3ZjbyyWgTdvo5dpu5CC0kTKQWvMNhaCTdbcxiZW8P+lCZWbtuB8JQi5Ho5QdfMZ/EJEq2kk5KS4ODgwG/Q+u677/iAtKKiIjQ0NKCjo8NPbjMZtBeJXEU0Jnv+Q0NXV5dvXkWmPb2nDRs2YN26ddDU1OR3OdPERhl9jHehBQWdfxIjcbvppoKuMRIlspRYooNk87GCZKivhBuJguvtho08rN0u8W6zqqynUFmhitraImgp7IXpBV/+GsjNycCD4Psoyn8JG92DUDawQGR0LGLDfPDN7zaivLEVXtddscf0Ev87OZWA+hfbOUGaGAft7mhCeWkR9ztL+XmhuKgEdQ2t71hIAkHq5ATJDEZqNnyMaaClEPIr/si77CLdL8Ng3ynw83tTNr7apYm8BorX1MHBRh1nSZCiOQtJzwVZ2WnQ2fQtLN0C+BjZLUcjTpBOIKekGecs1GD/MIN+C9qeh+LoYUNOkJr4xwI4QXKxh4KFO/9odKgOR77YibzyWgQGeGCH8TVOkOJ4l11SVhEumOyBorE9Irhzk3DvGjbv2oWQ5wW8haRtukgsJHpj9KZsbGz4/UHUHMrc3By+vr68OFGXUPpD1FKXNrY2NzfPeLS2tqKtrW3S5z40mpqaeKuIKj/QxUsbaqkHPZW+IFGi/U2Uuefn54f6+nrhp2KILKOFiBl9CBIlkfuOiZLk8rGCZGygAs8kwTXnaaeAs1cuCwQp+xlUlx9Gx+gQIry4Re8+JVz1uQNXezOoGziirbESlrr7IadpgvCwEFge18IXf/wGJY1t8Ll5GfvMLvO/kwRJe+luxGbMPDFHIEi7cLe8H7mRXti/bRMcL9+Evbk+Vnz7OeLruxF1/SpOHDwtFKQcfCOn81qQnOy0YH+bXHb+0De4gOy8HGhsXgJjl5sICQqAoeImfLdLhxOkely01IZjiKAAQNuLcBw/YoK4lxMF6eJ5RxyyFJxfEiTNpXLI5wTp3p0b2HPSgxOkBOge08PznFJcNJKHnI4lHoY8wAULDXy6fANCOUHK83GG/qlb0i1IZFU8f/6c3ytEb4zcavHx8bwA0JuVBrq7u1FTU4OAgAC+j8iaNWvg6uoqcROwuKEEBrIsJVGMRFBMiWKLJEpFRUXCowxJ4mMEabCvC89iIvGSs0CIl5xl8Dwri7dCOptqEOkXJogDDQ8gJ+Uprl26CJ87D1HZIHh9V0s17t1yx5Ub/sjML0VMeBCqmto5KyoTj+Kz+NdwSxpE+wWjpmF8PGZ6jPS1wVBzC7yyWjDGCWPO88e4cvkKYpLSERsdgtqeQVRkZyE2NFGQndfXBL+H0WjhjnMzDlJTopBSWIP+qnxER6fyyQutNYXwvOoKz8BQlBbkICQqBlV1zchIeoIXpQIXXX9dGZ5GxqGmeXya+Agy0lMQniRw642N9iDK7yFaO7pRXJiD4PhsjPW8QnRMNOpbezDY04xg/xu47OGHvMICRIZHI7u4Bo35aXgSL8X7kCgudOrUKb50xOnTp/lJXdqhTK6EhATerbd582b4+PjwMQtZg4olkmuVBFrShZkWRSYmJsxSklA+RpAkmpEeRNzxxK7t6/CsauqNprKAxAhSREQEH4ehuFBe3sds2pJ8KBGCyhVpa2vLVIvt8ZbRQicwTBdaSJAo0SKCZd9JFotNkMYGm+BiZgSHy/dA9o4sIxGCRBfWt99+i2vXrgmPLF7I6lNXV+dX37JQyJXiMpQ4QpaRtFm85L4TiZKkWEqUEELFRdvb26VikHjMtat90VlIjNcsuCCdO3eOz5qjytuyAp10UbIGxccWK/Q5eTHaswd19dKZFk+fQRRTKi4uFh5dOIKCgrBs2TI+YYYsTkkelAlLHXupkv5cwgRp8bKggkRNn1auXIkXL14Ij8gOFKdwcXHhRSkrSxQUXTyIxEhu7z7UlhcgOfwG3IOihc9+iHEJsWOdcPdxh+vD2ZV26mwqhY3ySVR3TVVYawShD+/C7HKQ8PEbKOZHokSW0kInOpw8eZLPOKVSV8+ePZPoQfc8CdLVq6J9OnPDjAVpbBCeF2xwPTBbeGAyxtDNW3ST14CTFPLSUvA8M29Cyvh8UZcRBbert1DSPIM0ORHdVTC1u4yKBuHO3HGM9TXAxe4cKhvbhUfesGCCFBISwqdG04Urq5AoWVpa8vtxKH19sUATOMXJaBVf/UrwudJiAxH8NJX/96SMDqG+pgwZWXnomFB6pQfBEcEIpEwm7nxRbEdwM45x/x7GCBXK4o7zjA6jt/fNhNLX0/N682FLdSb2/vcG5Le8ubl6ujrR0y96PIyrl5yw7fgFjI0Moad3opuJbhSR+66wsFB4VPyYmZnxk7G0QO+VepDNJTMRpMH+XvT0dOG0zn4YO8cKj1IyXR86u94kELSVpsNGzxC3H5dx15Tg2OjQAP+a9yaJjQ3z72dw3C5Xuq/HuP/6ensxNCxYAI0MDqKv78011ce9p+7eN9f54ODABJEZGR7BMDfGM9JXA0MTfVjdeMjXhxsTvrG+vt7XPzvQ14P+8W9GyCB3fGDorU/Cvffunqmri0fcsIbJGRs08h9hhDuPb+4tOn+9r++dSRjuQ0nFK/QNvrsAfOprD8sLfmjre/e5BREk2rtDwX3KOJN1qMgndWQ0NTXlL2Rph1LeX4uRKIFhpI8TpCCExE5SommwBwU5KbjjdRmqSgdhxV2o7X3jb81ehESGIPhFAXoLuNfdfYoOuo9HOhEd6ofwF0UYrMjmfv4+7vj5w8nOAXfDY/EyPQmXXGxx3uMOWjiB62zMx6HPd6GscxTtjXUIv+cPB/uzsLRzQUwWJS2MwffmRaw6qIeQB36wsrFD+HNKWX3zXkgM6XtaSFGiLFTaVCwNUBFjaieyIILEWUUvU55wK3EHuLpdwyG5bbC8koLRwV7kpj7DFddzsLa2xs3bYWjvH0RW5DV88cmnUDA4j8bWVpTkp8PrmiusLC1w2esuqt5us8CpQWNFIW57e8DG1gZ2ru7Iq2rkxGsMUQ9v4YqvDy7f9ENS9FOE+gfikus1eAeGobWjBfFRIbh4zoFbjFojODYdvYNDeHr/OsLShMkzo9245x+EuPTxccsxJD90xe8++w32GTiitfkV/O/cx6PA2/D08uOrRqTFPIDtmdOwdrjA15jjf2qol7v3QuBobQlruwtI5Y7TFd1GKeFXXGB+2hy3guPQ2fO2uIzh4hlznLsayL2fHjzycUdgZAp/XvNSouF81gqW1g54llOOkfG3q5Dc+Id4kp6Pgbee62t6ieOGZkgtftO5ezxiFyS6qeliokmLNcMTQJMbuS6lveI4pXaLxGhCAsNgO/zO68GEE5vxtNdmwtxACypHNOF01Rfl9ZPs3xhrhYm1CQy9I9Ea7gk1LWfwW0mG6mB38jDMvaLR9zwYaz5fCmM7d9y5dRXL/vczqBs7IfjRPezbsBxXgh6jtbUSKl/K4VXvICIC3KGtZ4LYlBe4f9MRK787jA5ulXn/uh1+/tuv4Xn7Hu542mP5SgXkVLYI3ocQWjSQ24xEaSFiSkyQpidIpYkPoLRzJ1w8AnDbww5//vS3sHLPRFt5Kk6e0ITr7XA8j4/Goa1rcCk0G+UvwnBg3SacufIE/e1lMD6ujwueAUiOfww9FSUcOSWo/SZitL8TPk7GMDzrjtS0NNjpHMARo/N41TaA01o7sEZOE6Fx6cgO8sMuboLVtryEhPRs5CQ+hNIRbUTEJ+HJA3esXKuAxymFSLnngj1qgoKqbbnh0NHVxZOc8V6TUYTdtMC3K5bgelgqmrPDsHL9Rugfs0Z0XAZSE0NhaqgPn8BHuHXhJJbsM0JrTzeSub+xZ4cczrn7wNFUDeqnXVFemgeLYxo443IdUWH3oXLgIK4GPpmY4TdQBcuzZ3GdOx575xK0jlqivLmbE5oHUFE+gqu+DxDs74Zd+48gu2x82SEB544ehHtg5IQCsmRl+Z63hqtPCHonETFC7IKUkpLCp3dT/TfGGyieRCnv0lp1nFK7SYwmzabjBMn/gj5MLvoLDwioy3uEXZs2QP24BR48ThQUcnwbkSD5cKIS6Q0NnXOo4wWpHg7mqrDweYKexHvYr6CH0mbuluprhr7aflyLFNSk87TZCwevm6iurcSRL/eghJswWltqkZmRiqdREfC+ZodvfrMa5U3t8L3ijG1aDvzPcdMe1JdsR9SLd1O+aVFForRp0yaxZ98xQZqOIA3jkokRdI8L6sFx7wRux5Rg6ZaEgd4OlBdk4kVKAh7evwPlbd/jhHMs2stfwkbzKO7Ft3Jzfx/KS3KRnpKMsJB7UNu1H7v32Qh/l4CR4SHUVeYhPS0DUREhsNdTwI59ZijgJmd7E1XY3xbMb+3JD6GqoIPkIkFDvJ72RuTlpCHp2VPcu3sVX/znWtyOzkZ3WzH2bdmJsq4B3He3h+FpW3S85TAJv3UFxwzMeBdi+m1b7FQxRp3Qi5aZGIPTZ7jJ3u0iLpw1xB92aSM35zlMNHfD65mott4o8kvLcNv5GP7t//sDTp6xwpkzltiy/L+x3+IcWseJRHthAk6oH8LOLduwXfEEKjq5JwdboLtnGf6wbDtnOVpyFp45/vAv/wS/qAyUFmYgMSEOaZmF6OtsgbaSDsKeTcwibsiPg6m5LTIrxleFmIhYBYlWl+QDp4uULlbGG6gcEWUbSmOCB6V2iywjcse+Ay9IR2H6liARXQ0VCPK9BmsrC+jrH4NHQCT4zeciOEEytTGFESdILeFe0NK7iAbynow2wtniCM5wgtSdGAQdTVuUNg5joK0GJ44q41aqoPqwh9VeOPt4o6aOE6Ql8ihv7UL8Q29o6xjgvNtVXOZWbMv+ewNfl+yW1xXsOenG/xy3ToXON7sQkzp5WwpaOIhESZyJDkyQpidIDjom0DcUWjVjwwi0MoT99XS8KsyELWdJmFs74pr7NU6Q1sLEJR6tpVk4o6aLewltGG0qgbPlSZiYWcHH8wpUdylA7oCd4HcJGexp5ax+SxwzMseVG544o3UAew6e5gXJ8bQGLjwW7KVsTniAo0fMkFIksP4L4kNhoK8PB2dX+N90xpJPNsM/kioiDOOGnR5On7+B85ancSXwrXjraBc8LljDxCmQf3jZ6CDc7sbwMdLmqjxOBDVgYuWM864XoH9gPXZq2yEjOQLaCmtQLryfGqsL8Kq+Dtb6Cth4+CjOWJzGGUsruJy7gOj0AkFJIiFZ0QHYvnopdw4MsW3/Ce7e6kN7XR72b/gP6Jvb84ULrGxscfHSNRRUVOK6ozGOqByCxflbKM2KhqahGZLzxi1MR9px09kGV26Fv2U1TUSsgkSVGKhiAVXoFid0Y7wZwoMSCE02VK9PmqAEBtr0OqUYEZwg+Z7ThdF5X+GBdxnuasSTsHu4ExyN1s5xCQUiQfJ+zAmPL7bv00VZcz+6azKxe+0SWPrGoDvhLtRVz6C4fogTpGoc1VaEZ7LgZrhmsQuOXp6chVQB1SX7kV+QAz359dCwuoau/mEUxd3BF//1PYoaWuFz4xK2n7jA/xyV9Nf4ahueTGIhiaCbR5ToIC5RYoI0PZfd4xtOUDygjpKmAQy3l0FhzTLY33iOh5dssGrpduTWtmK0twl6cmugbxuNjrIcWKho4m5CK8rDr2DZKjk8zeQsi7EOWKoqY9MeK+FvFtBYmogNv/sVPJ8W8nGSQKfj2LTTAPllTbA7qQrnUEHZneb4e9A5bITnRWTWD+K89n5sUbFBU3sPuioSseyTNbgeIoit5iVF4PNf/xb6pqYo6Z44bQ82FcPumDYuB5PQ9UJdThERiYKswZxYP+xY/yXSybs81gYTxTXQcgxCce5zHNm9Ak+KO9Bbmw1t5SMIjU2Dr4sRNO0FwtZXmwO3m74o5Vd5Isbgf/UcVLWsMMqJubnaLpy7+wxNr0phoLwBd9IFWziyonzh/ygOvYPDqC4rQn5eHipqG5EefBkGZ1xQPC47Ly8xhJvbzqCk9f1ZjGIVJOqUSCX+KdYw34w2VcFBfR++/GoJ32JCNA6qOHBf5/QYbS7EAflTKGiceW2qj4EyDr///ns+0WEyqBgslSGSlGKtJEZUDkhOTm5qMSIGO3D3sjEsrtwVHngflD03PkuoA2a2nFXt/hBj/e1wMFLHhvUbuElZD+p6OnC88ww9z4NhoOeAskZOkNpfwdRQA36pAv+7l70SLvr7cSvDKuh+p4TK1k489r+IrRvXY4+8MszOnIXctnVIL69FwC0PKJiLUpTbcGz1ATxLf39FDToHJEpkKU0n0YE2tlLbFPoeP4Z3BKmvE+Fu53D9vqB684zoqsGta7YIjJnafT6d9VtebABsXL0wNDzx1R8SJNrgSwWJZ5phOh1BGuhpgu/50/x8I6/IWS/r1uHcrRzUFaRC5+BubN+9E0ePm8JEQwF6Z29jdKAdN6x1sXKXBuJjo3DWUBObtmyHnvFJaKkcga6aIQRV7QQM9bbA7ZQWtmzbjoNqBjhrqoU9mibIyq/ARZujuCS0kFqSH8FI2wIviinFeZSzPO5AbvsW7NglDwt7R8h9twG+wYJM4+GWSsiv+Rq6zu96Eka7m+CouRdr5Y2Qk5EAPaPTSC8S3HN97TW4aHoYS7/+FvuVdbB3+1qc8onhrPgBRPo6YNWyZVi1ehMc3O+js5tbzNXm4YTKXiz/9ltslVPCzQdP0Da+a+xwK9xdbeDkLdimkR1yAXK6lmjt7kP203vYtX4VvlnxPVT0TiIhqxRvJ+8FXzaD83UfdIkuh55G+FxxwpX7ScIDUyNWQbp48SIOHz4sfNn8MlCaiaO7NsPyagDv5xeN6pomPhNmSJjb2d/Tha6+twt2jKKjvQMDNen4/afySK2eGNieL2hSJ0F6Oy5BO96p59NXX32FQ4cOTSlY4oRiRtR+g8TogxUYuImpv3dimut0Geyphq6xLo5dfSB43NuJqsoK1Dc2oaevHz39gxjjbryuzh4+XXdsdATdXZ3oF94lfT3c6pATjRHueGdrB+9/p7TuhtpqVFRWc9ZYD/f6NgwOj6C/rw8d3aLlyii6uNcPDr2bQvs24913+fn5wqMTEbVQoRjbH/7whylf9yHeEaTBXqSG3Edk4sQ+TiND/dx104bWtja+oj0tZjq7el9nyPP0NeNJ+G1uUpk8DvaqOAshT2PROEWhhaH+buQkcIvMFb/DFjWzd7KtphIkej/Uj2zJkiUf1a15OoJEjA724VV1Jape1aKTu597+wXfZVdHMz9J1dY3oa+3m5ukBd/5AHdt1XDiOEDXQk87KvnXNKKruwc9nR2vtxCIGBroRQ13LVbV1PLZpZ3cGBwaRi83p/QOCO5RSh3v6uzmxFp04kfR0ljL/f1KNLdz90RnO7eoGeC+rz6UZD7jxEsZYVmCeNPb9HS08u+nv68XXb09GBblp3MMcvdXRSk3v3EWCp0fui94RofwqrIc5VWvMDTu++ntbEZZaSlq6pvfXXSMjaCX+329A8LvZWQQza3t/L1DNNdVo6S0DC1T7Nnq7e5EH3fPvWZ0GD3dXeifxrQlNkF68uQJ73c8e/as8GXzSz8nSKbKirifMknDtbEuRIQH4rL7Ddy8egGnre2RkC9Ik+xuaUDQDTectXXE9Qtn8SknSNmTZX/NAzRpKCkpvU4AobgSCRH1WfqLv/gLvrstra4XGrrgqQ/VtMRoFowND+LZbVcoKB9BSKJkV96myZfioxs3bpwgNmRBUfaksrIy/vqv/5q/MUi8PhYrKyu+fcdrBnuQfO82Hj2beH4ai57B0twEx46f4CfvYwZ6uOjxkJtExs9KjYgM9kFs2uSWXXHiAxxzPoepbN/y7GcwNTGF/SllqJk7c4u8iVObSJCoZQxBbWLoeqZFF13PP/rRj/jK/jNFlFTyIUGSJhoKY6GtoYqTZ69OyypdrIhNkKh4KjVAo+6s4mCoKg/Hd67DHs6EdXJyEgzu5op6Th+0A+a6B/Cn1fsREhaJa9b6WLXnJLcq6IC/izn27NNGaPQTOBxTwC/+ZR1eNs2/i5GgVRbdwHZ2dnyJGIpNCE8kP7755htkZGQgNTV1QQa1eqdSR/Qeae/UfG/mHeNWjVlJT5GSvfAle6YDTcBnzpzhV/3Jycm8O0pNTQ0//OEPX3+HP/nJT/iOw3Q+KeN0JoPOP533EydOCP8iR08rvA11cfrym02fRG9bDZIS4/A0NpYXxKcx0cjIKcUEZ0B7MexOqsD1zsRN681V+fz9oqcij6/XrsdxaydcDwx/veoX0cZZ7gPDQ8gJc8ERUzvu3+8KErWPof0+/v7+fHbt+OuZLCT6XJTI8/ZnnWrQa2lxS56CuY5NLSQdDWWIiU1A+xTWqKwgNkEKDQ3lJzJxbYYdrs7Hsa2rsHLjDn41zw9NHfiHcxbGWBv0DXRh6iFIruh/lYWt32gjO/c5ThxRxq1oYdygPQ+bv1BCdk2r4PE8Q24dikfQCvLv/u7vJty8tKIklx01/6MutaqqqmIfdA5JJH/xi1/wEyrjXcj99OWXX/Ilc379619P+A5p/OM//iNfXJfOpzJnNc1kkIv0V7/6FW+JvYYTpFsmR2F5dWLFk4bCOFieNuVLHonGRY+QiRZSewkczNXgFjhRzGoLU/jveufG7/C7L76EnLIGzC94TeLaFpAWbA/VSQSJIPGkfmB/9Vd/9c65+Prrr/nzoKKiMunnnWzQ6+Xl5flz7O3tLfwrjMWCWC0kch1Q/TpxQDEkctkFPZ9kdT3aAH0LI5jfiuAftlWkY99yfaSlx+G40hEEPRP6cPuqsP8rFeTUiCeGRMkeJNqOjo68a4OKUwpPJD/oJqS6dws1srOzeRcLTTKULSlt1bvnG9rWQDEeOjdkIVFRUZps/+Zv/ub1d/jTn/4UDx484M/lZOf4fYNuUorBUvPK10whSM1lL3DBxYG3tkXDMyAabd0fFiQRxYn3cdTRZUqXnYipBGm8hURW4dsW/5/+9Cfe6pvJuaDXkpVO4nTz5k3hX2IsFsQeQ6Iq1+KABOnE/t1wu/eUtzxEgz7w2GgjtE0NYHIzlH9tW1kqtn2ujtqWKpw31YT+mRu87z/lnit++28bkVUnvhgSbY4VVT5vaWnB/fv3+WA5ncMf//jHiI6eboHS+YNiSKJNsLLeBVcEiZEoBXx8BQe65igmSLHBH/zgB/z3OMHCmSHvxJB6WuB1QgfmbhPdbtOivRi2psq4eGfySvvlOUm4FfIIrz6Qi5J6/ywOGdpMKkjjY0gUE6XrmWKidB7IlUnzwkwRJZHMPoY0jOQn91HdPD5/buYMNNcgNTEdDW1Tn6jCrERklNe+dw/OBMZ6ER2RgLJa8XhnJAWxCZIoy458v+JgpK4UJ/esw6e//x/eVy0auxWPoKO7A6cdLWF3W3AztFdl4dAaAzSOjqGtKgcntZWwZctGqGmp4vsvlFHcLJ4YEmXZ0ebY0tKJiRiUZRccHMy//7179844K2k+oCw7Svmm/UdzLkoj3fB3vIXG6aTlSAD0fZAYUYuKqVK/qUwWrex37NiB3//+9ygoKBA+MzPeybLrbcNdazM4eX04pfYdOsrhancMN0ImT5QZHRnGIPfZxpXzm5Ss8Is4anMBg9NM+6YsO/IA0DYMKixMqfAzYbpZdh9krB9OJ+QRnze7ppGtqREw1jRHfO7k2XGEu7UGrO7PZNHQij0bNOAbPXUngMGuFvg6+kE8s5N4EKsgURyJ9gXQ/oN5Z2wU/d1daGpsRF1d3evR1NzC3WBj/AcfGBJMeJQq3NvT9zqtcaC3i88I6ujuQW93P/96cUDniNpRTJXWTcJEe5XoBEsCdA5Fm2Ln0n1X8zISq/5rPe49TUZ7Vw+a6ipQXJiP3KIqDI+MoaG6lA9uv0jPRnPnm11lXU21SEtJQXpWLtp7RZPcCCpL8vmAeGGpoLDkXEKWNE2O063YQOeMkgw+tg/WO4LEXZtDA/0YmKTC8wfh7pFB7mcpVXk2jAwPoI/7XG8zlSCJoHmALP737mGbhDkTJO6OL8vPQEcv9/67OlFXWfd6Dmh8VY727l4M9A+grqwGNVVF3DWUhvq2HnS11iMz/QXySqr417c+fwS9QyfwNIcEaRTVpQXc9cldh5ncdSgsO+J2ShHHrwcgNTuTv25bxm/+HkdHYzVe0LVamIiVXx6AT5Sg/E5nUw0yuL/5nHsPr4RtG/Lj72L5J5sQlfGST0nv7WhCdoYgWaas6t36csRgTxvysjN413thaY3g845yn7GxHsW5L/EyvxhtHT2oKa5AQV4GSqvquO9xBFUlhdxneo707Hx09tNPDaGi/BW6hFXxR4cH0VhXjfa+j7gOxyFWQaJKDZSBRBtkGe9CrhwLCwvho6mhG11SmA9RCrlujF/83T9B9fhpPI1/BtWd3+LAIXWY2Hnh6UN/6Guq4YDCAWzZtAXHLS+iqWcMnfV5OHVUA3J75LBzx26YOVzhRKkPLyL9oXPkEBQUFKGpcxRBMe/riTMzRGIkzuZ97wiSBPMhQfpY5s5C6oXR/m+QWFaHlJAgaKzTem1tmCl9i5uPE1GclYKdv1kBU8tTkNu2AQpqx2Br6wD1Q3LYsnMvIvKa0JPxGMdUTThLqwV5Md5QVTnMXW/y2LxxM8xcvNA1BNy0VsG6vQe4a1AbGzdsgoGVK1r6RPInoKkqG4aqCpCXk8cxrYP45T+vwoOkIrQ3FuO45mGoKh+A3O6tkNOwQF5tB4IuaeP//dE/Q9/CDmUVpXA214H8QSXI79uLXfIqiC+eWDNuuLsJzlZGOKykALm9u7BNThUBz0q4m7gEe/fuxI5tcjA2d0TYvfvY/JtvoKyjigs+wXjocw1aR1RwYL8cNm/eButLtzCADqjt3YsrQYL4Y01eMjQOHkBK9fsrMXwIsQoSXaCiG0qSJlVJoKmpiXfXUZBX2qA4CYnSXLUpH+sqx96vjqCGW3xV5TzBth2b8FC4WfBF5G3E5Qrq1FUk3ceeTXsRmdOOAGtFaJ9x5Vd8fU1l8PP2Rn5mIhR3boG9xwM0NzfhwQ07rF27CWWcgM0WcjOJxOhtF+t8wgRpbgXpmNyXiC+txXNOkNTXab4RJEUSpGQUpkdj0ydfIq6SJtoarFu2HKbugjju3Yu60HS8jcGcGBznBOnZywYkhN5CepXgt6SHemDLdgU8rxqDj60KdmpbcxM50F4UDxX5fXiQ9qZB3dhQD/ztjuGQgaCWYmdlHJb9di3uPs1BbXEafEOFbtXeImxcuQNX7idihLtP5JZogX5LTf5zPAiNFFp4vTihsB6GlybG5waaSuB555GwqvcgrPW1sFvblft3NVau3gTvGIEIZIZ5YtvnG1DQwz/EI18vFNYLPlPivQvYsmMj8jmRfXb9BNTPXEQPt/BLDLoMRS2HWXsgxCpIBE24tHlQFrvEvg/KrKP42sSyOdIDxUhIlKh19WxjSkOthdj9hTLKOkdQmv4YR44eQaIo8bG5CledbWF51hGWxzWwbYMSonPKYblrLW4/nBhHqY8PxLaVa7mVngns7W1hfEIfWgaaeNE0u3NMLlVRW/Oysqlr3c0HTJDmVpBOyC9BAidIKY/uQXODDkQV3U4rr4BnVBJyU2KhvuogBHm2jdiqoIugREFZoEe3TKDh5M8L0jEVY85Cakd3QzFc7Sxw1t4Zp7SpWrYmkgtHcMvhCMzvRvOC0VOejtNHjiLw6Zu2/gMdDbBUVcR5f1EMchD6G3UQTC67sR488HbFSTNLuF20xvL/2gCfe8nobSvEri/V8IqvSjKEmPteMD9pBjtbWxzauAYmDm/HrMaQGh3EvcYcFy7YQX7NHqirXeaOV2K1ii5iuPuISAnx587FG3FursyEizX3mRzOwUBDCesVFZHUBoy2ZGKfnDrinqfjovEh3Iqf/b0gdkESZSPRPgcKjDOAvLw8vh/Sx9Y3kxRoYy8lOpAovW7O9xEMtRZg558Oobx7DGWcIKnqqSCBnxF6YKW0CdqG1gjmVoMht9wgt+0AHmfV4YL2Ljh7C/aVDbe+wgN/PwT73sD+3ftx7U4UCgrykZbyDPfvB6FuFhaS6PpdCDEimCDNjyA9D7kN1dWqwkmYE4NtX8E9PAl5L+KguuwweOfXWB02K2rjTjxNlqMI9jISCtITHFM1RXxqHkz278UJCyc8iojG7Wt22LlNGUmcIPnYq+JkQASfZddVmoqTnAAExr6J84z0teGikSoMz4ULDgzVYv8KJQRGpCLck/s9+3RwN+ghUlLCsGHJblwJTOQEqQA7Plfj33OMjxt2rN8Dn7tBeMbNI0f3b4aR48SM3LyIW9i9UwGXPAIQmxAHE1VN7FW9xD1Tie9UtBHNN6oEnj+8zVmLQvdlRzH2y8vhhKULQiOf4pabNTbJb0Uifz+O4eKxwzhuaY3dinpon4McJLELEkHJBevXr4eXl5fwiOxCGVoKCgr8RLMY3JgiUZpNSvhIfy0Ul67C5TsRSImPhNpRVaGFNASjPcuhanQWkZERcDJUwdIVm/HoeS1qM4Mgv+8ALl29AbtT+jikfgx19Q24elofKhqGCAx+ADuz4zCwdMfrsmIzhKxXkWW0EM35CCZIcyxI+75CbGEDavIScHjjSlhd8sL1yw5Y9qff4MazHBS8eIYjK94I0lYlndeC9NDbGJrOAQKX3ZGTiM8shN7m76FvdQmREQ9hriaHb79TQFLBAGchqcFsnCCZqeoh6Nm4xIOxUeQ/DcKujdtx0csPF87q4F9/8iVC4nMRdsUMq3aoIzI6Gp6cyH32T1/gelAyBgdrIff5ctx+Eo+7V5yxdsUm3ImMwR3389j4zVc4enZiV4WiUA98t2YnPAKCERzkjbWfL8MhtYvc91SF1ao6rwUphRNnjfXagmKy/ZXYsmY1Tpx1xeOIEBw9tBXfbJdDQr3Ay1Cd6IX//d8/QuucYE/nbFkQQSIo446sAtGeG1mEJjhqN0GTN4n0/DKGoUFK4Z0oeiND1Lv/I2foKRDFlMhSqqx8f7XsyRlF5tP7uHHzFjJzCxD2+BGqhMl0HfXl8LvuhgvXvJD6IgWPwh4hJZ/+xiiKM5NwxfU8PLzvoqJBkMk50NWMqJA7cHJyxK3AUNQ0fdyeE7pRRDGjhRIjghJf6H1IC/ReJVaQuGvGaM+XCE8r5/RgGCVZsbjo4owHkXGIeHQHuTWNaHpViUdewYIOAWNdCHgQzrcqp/upMDsaockvMdJQjsiH0ahu6kNnbRE8r1zA1Zv+SE99zs1zD5Ff2YKXSaF48rKU+4vctdRai5iH4dzxtzxE3HsoTn8Gt4vncC80BN5X7qG0uhlDfV2IuOsJ53OuePoiB1HBAUjJzOV+1yieh/vjuncAGtq7kRQRBCdnFzyKikdaQgSCn6RwYiP83RxjQ/1IfxaK885OuBfxDImx0YgID0d/Xwd8H4WjvL6Nf92rolyE+obx8S76nHWlWXB3uwB3r7tISU5C+IMw5FcLHXo9xdj5zXoklc5N8YAFEySCLlT641QFWdagOIStrS1fVmUuT/5U9DdWwMnUEL5hKfxNQfS21CLQx5NbwQkuxLmEgv60kv94UeLuT06wJzUaudXk8LhY23jLkv8Z4b/HM5sK6SSwVJ2CtiyIu0Ps29CGUPIuxMbGSvygxSads6tXRS095oY5EaSRXmSlhGPbt99z1/+bxSDtvZrs+pkRY9wib1wl7pl6Pug9TMaEa3jc7xwZd3x4ePwexcn/Lr3+zTPT6xE3NjrKLaAnfqaakmz4nDOBpoU7egbmJva9oIJEuLm5YcWKFYiKihIeWfxQujCld5MY0Z4BcZD7LBBrPvsxlh6yQkWrYO1TnhUDxV3rEFU587YQ00EkSrT5UVrLDNF3JRIjcWbTTQVVOqD7hcpK0XuS5EF7s+j/VDZsLpkTQeqvh/MZIxg6eqP77YY+jGkRHeACVTUNZFTNXTWJBRckgmJJy5Yt48WJgsaLGQqEU4FImlByc3OFR+efB25ncUJVDlsUNHE/RtDM7UXYLWzfoAhybo31tOCB92UcO3YCHgFh4Pe+zQF0gYlESdrKDJGgisRoIRIYJoNWySSSZLVJw6DvfzbW6WTMncuOIWlIhCARZCFRHTAK8FMRxcWIn58fX4lBT09vVlloM6cHtidPwMgxAHfsDWFo54V+7ot/dPMMdhm4AkPNOHfKAIrKmrzlpqywDzbec7eqpZRw+szSJEo0idKkRzEj2tDNkByYIC1eJEaQCJqsaEKkZAe64CRlVTobyOIjXzrVoKPJjURJ3LXoRloLYaSrAuf7qegvj8TGvbrILijCVXMN2AekID30Kg4qKiOzQRBkfRnlj7Xf60y71ft0oOw7KgpKokQXiCRDySbUu4ssI0lw0zEmIk2CFBPoCr8AP+Fm1Jnx+PZFXI9KRO/MQlATaC7JwHVPd7xsn8UvESMSJUgiaNMsTQjkxqMUYprQqZIBuSokHQr20eRLgXzq10J9cai6MQV2F8o6eJUVA81DCgjJoOSFQRw7sAnOnnege2gbokoacc3wJE6bvynlnxHlg5VyRphr2aR9ZyJRklSrgywjuvbIpbrQCQyMyZEmQUoK90bww4cT7iWaIwYHB/j5TDRoIn47AzY+xAu349PQN4mWjA11IDQ0Fm3dk5fqGRsbRWdDBcwPrcPvvt+GJCkpGi6RgkSQ/54qIjs7O/MTOiUA0IZEijdRYUp6wzSpUWHG+vp6vhiqOEdDQwOfqk2uN0oDzszM5PvfUEVzihF9++23vPvx7t27/GsXkqSHHjiwZztKhVmmibcssWaTHFZ/sR4tGIOPhTnUlU+jpq4BNcVp0Du4Fac9HwtePMfQ90o9ciRRlCjmQTEjWkQsBut8sSJNgpQeG4So6KgJbSe62xvh63EBZqfM+Q7Dp81P4ay9I4qEHgoRL54E4tGLHPRPatw045CSMeo7J7e9Bjpr4WZmBlUNdSjoqiNp6kLkEoXECtJ46E1S6+7z58/zfWVWrVrFt0OmQq3UAI2qPlB/HnEO6t5JnVup3A+lNlMdOkrHpQA+tWsma0gyygCNIdTrCtTUbfmKwMRgYxbWLfkzVu814R/X5sdBR3U/DqnqQuPwfmiYuKBpsmXZHEEuS9owSaL0sSnhcw3FuajxnSQlMDAmR5oEyddRE1Y2Vhjv2xno7UTysygE3bvHt5W5z/3/UVg4Jy6C7FcRN8+qw9DzHsY3+e1rrcfTsGDc9r6IJV+tw7nLHgiOiEZd78S5ZnioBw313chPCoO6wRHET6yzKrFIhSC9DZm8tbW1oDbaVL6eqodTOqw4B3X9JIuI2kFQthy1hpBMRlBZUYL04vFJFCPITI5Bat4bl1R/B13oj5CU8eEWCnMBXXgkStQfaKETHcgyIjEiNx0TI8lHmgTploMGLK0tJwhSb2cL7vtfh4uLy+tx0e0KSpsmRm1v2KjhxM2gCYLUVpyJ09qHsWvbevzrv/4aazduxmF9I6Q3Te5gL34ehiP6qkyQ5lOQGIsD8p2TKJGLjC6ahYBciCIxYtl00oG0W0jUT+mqyxk+81Q0jhub4mWtqLSrgMkspDc0Q37vUdRTb4v3UJgcygSJCRJjupCrbKFEiVyHopiRpLgOGR9Gqiwke3WcsTozQZCmyw3rIzj+loUkYqy/Hg4OHqhteX8prIKkR1DRVUYcEyQmSIzpQdl3FHsj9524rBTKpiPLiMSIWUbShTQJkp+TNmxsbT5KkDztNGHsdX9yC2lsBF1dPRj5QCGBwucUQ1JDAhMkJkiM6UNxHFFMab7jOHTRi8SI7TOSPqRJkLo7mtHW3jZFVbn309XejFZOdGZTNGWovxfNLU3ol4T8qmnABIkhMZALTSQU8yVK412ELIFBOpEmQWLMDCZIDIlivCjNdUyJxIhcg/PxuxnigwnS4oWSjJggMSSK8ckGcyUcoow+cgkyMZJuOjo6+EaJtN+Psfig0nFMkBgSBQkIWUq0UXW2SQe06hK56aSluCtjaigJhjal//GPf8SBAwcgJyfHxiIYVO+Tigz87Gc/Q35+vvDbnj1MkBhzwlzEe8jaolJF9DtYavfigAoWU6kuHx8fuLu7w8PDQ2bHzZs3Jz0ujUP0XVLRAbr35womSIw5gy5MEhTauDrTjDhR3TxxppMzGAzJggkSY06hzBuKKc1ElCiNXNQYkMWMGIsRKtq8Z88evsgzY2qYIDHmHFFbiOn0KKL2H1SOhSwj5qZjLFYcHR3xN3/zN7C0tBQeYUwGEyTGvDBelKayesjFRz2XmBgxFjNtbW347LPP+In2008/5fvFMSaHCRJj3qAkBZEovZ3oQJl5ohJELJuOsZhxcHDAX/3VX/ET7Q9+8ANYW1sLn2G8DRMkxrxCwkMxpfHuO4oziWJG1DSRwVisUOudP/3pT6JJlh//8z//M6XXQNZhgsSYd0TdXUmAaBOdqakp/29mGTEWO/b29q+F6C/+4i9e/5tZSZPDBIkhFshSIiH69a9/DUVFRRYzYix6ioqK8Pnnn+Nf/uVf+GoVZCnRwuyXv/wlv1GYmoUyJsIEiSE26GL7/vvvERISIjzCYCxOaEMwdas2MTFBfX09n9hAZXbIRU0p4CdPnkRgYCDfUZvxBiZIDLFBNyZZRzExMcIjDMbihBJ6yCsgorW1lS9EOt4zQK5sykZlvIEJEkNsUIBXQUEB0dHRwiMMhmxAqd4kSKwKyfthgsQQG0yQGLIKE6TpwQSJITaYIDFkFSZI04MJEkNsMEFiyCpMkKYHEySG2GCCxJBVmCBNDyZIDLHBBIkhqzBBmh5MkBhigwmSbDLQ2YSkpHhUNU9s5FaVn4rHsS8wIny8mGGCND2YIDHEBhMk2aS3uQK6ittgYOeNUeGx1tIX2L7qa+g7+DNBYryGCRJDbDBBkl3yHt/Clu37EF/WCgzVQmfXCsjpOqObnhzqRsrTSMSl5L4WLKKvrQ6Pw0ORklsGaa9nwARpejBBYogNJkgyzHA3bPQP4bjVOVieUMWK7Uqo6xxBe3kazPSUoXnUCAaayjBzvYV+TpXqC9Ogf2A/jhqbQUl+Nxzc76NrSPi7pBAmSNODCRJDbDBBkm1aXkZjy9JP8f98sgZJxU3ASBucjY/goL4NEl9k4EV8EFb/cSuyKxuR/SwIS5dswuP0fGQ9C4HP3Qdo6nxTikfaYII0PZggMcQGEyRZpxsq69bA/Hwg/6ixPB1r//BT/OHLpVi+bBlWr12DL/93G1LLW9DV2YY7V2ywb+8e7vWeqGrqwOio9DrumCBNDyZIDLHBBEm2GW1Kw1a5gwhKyOMfl2Y8huKWr5HdKogclee8QHZhJeorC+B8ygHNvP70Qm3rSthcucu/RlphgjQ9mCAxxAYTJNnm5UM3bN2jgpSSVv5xd1MNnIxVoKpvhvOu53FU7Qi8Hyajsb4KJ+Q3QOXoabi4nMfBvQoICEvkf0ZaYYI0PZggMcQGEyTZpiQrAQ/CY9HaJzzA0dlQhgs2J6F/zAgPnmYLjwIN5VlwsjSFru4x3Il8gUEpT7NjgjQ9mCAxxAYTJIaswgRpejBBYogNJkgMWYUJ0vRggsQQG0yQGLIKE6TpwQSJITaYIDFkFSZI04MJEkNsMEFiyCpMkKYHEySG2BAJEru+GLJGW1sbE6RpwASJITZIkPbv34979+6hp6eHv0nZYGOxj87OThQXF2Pp0qVMkD4AEySG2GhsbIScnBz+/Oc/Y8eOHdi8eTMbbCz6sXXrVqxatQqff/456uvrhXcDYzKYIDHExvDwML9CTEpKQmJiIv9/NthY7IOudRoFBQUYGZGF7k8fDxMkBoPBYEgETJAYDAaDIREwQWIwGAyGRMAEicFgMBgSARMkBoPBYEgETJAYDAaDIREwQWIwGAyGRDCpILHBBhtssMHGAg5ekBS50S88wAYbbLDBBhsLMP6P0f8Ppl2KzEaG4hAAAAAASUVORK5CYII=;" vertex="1" parent="1">
          <mxGeometry x="100" y="10" width="420" height="209" as="geometry" />
        </mxCell>
        <mxCell id="QuMT_0o_VnBB8fyhdxgy-14" value="" style="edgeStyle=orthogonalEdgeStyle;rounded=0;orthogonalLoop=1;jettySize=auto;html=1;" edge="1" parent="1" source="QuMT_0o_VnBB8fyhdxgy-2" target="QuMT_0o_VnBB8fyhdxgy-3">
          <mxGeometry relative="1" as="geometry" />
        </mxCell>
        <mxCell id="QuMT_0o_VnBB8fyhdxgy-2" value="start" style="strokeWidth=1;html=1;shape=mxgraph.flowchart.terminator;whiteSpace=wrap;" vertex="1" parent="1">
          <mxGeometry x="120" y="280" width="80" height="40" as="geometry" />
        </mxCell>
        <mxCell id="QuMT_0o_VnBB8fyhdxgy-13" value="" style="edgeStyle=orthogonalEdgeStyle;rounded=0;orthogonalLoop=1;jettySize=auto;html=1;" edge="1" parent="1" source="QuMT_0o_VnBB8fyhdxgy-3" target="QuMT_0o_VnBB8fyhdxgy-4">
          <mxGeometry relative="1" as="geometry" />
        </mxCell>
        <mxCell id="QuMT_0o_VnBB8fyhdxgy-3" value="inisiasi i = 0" style="rounded=0;whiteSpace=wrap;html=1;" vertex="1" parent="1">
          <mxGeometry x="220" y="280" width="80" height="40" as="geometry" />
        </mxCell>
        <mxCell id="QuMT_0o_VnBB8fyhdxgy-12" value="" style="edgeStyle=orthogonalEdgeStyle;rounded=0;orthogonalLoop=1;jettySize=auto;html=1;" edge="1" parent="1" source="QuMT_0o_VnBB8fyhdxgy-4" target="QuMT_0o_VnBB8fyhdxgy-5">
          <mxGeometry relative="1" as="geometry" />
        </mxCell>
        <mxCell id="QuMT_0o_VnBB8fyhdxgy-4" value="&lt;font style=&quot;font-size: 10px;&quot;&gt;i &amp;lt; jumlah&lt;/font&gt;&lt;div style=&quot;font-size: 10px;&quot;&gt;&lt;font style=&quot;font-size: 10px;&quot;&gt;traces&lt;/font&gt;&lt;/div&gt;" style="strokeWidth=1;html=1;shape=mxgraph.flowchart.decision;whiteSpace=wrap;" vertex="1" parent="1">
          <mxGeometry x="330" y="265" width="70" height="70" as="geometry" />
        </mxCell>
        <mxCell id="QuMT_0o_VnBB8fyhdxgy-11" value="" style="edgeStyle=orthogonalEdgeStyle;rounded=0;orthogonalLoop=1;jettySize=auto;html=1;" edge="1" parent="1" source="QuMT_0o_VnBB8fyhdxgy-5" target="QuMT_0o_VnBB8fyhdxgy-6">
          <mxGeometry relative="1" as="geometry" />
        </mxCell>
        <mxCell id="QuMT_0o_VnBB8fyhdxgy-5" value="rata-rata = nilai ke i / jumlah data array" style="rounded=0;whiteSpace=wrap;html=1;" vertex="1" parent="1">
          <mxGeometry x="425" y="280" width="115" height="40" as="geometry" />
        </mxCell>
        <mxCell id="QuMT_0o_VnBB8fyhdxgy-8" value="" style="edgeStyle=orthogonalEdgeStyle;rounded=0;orthogonalLoop=1;jettySize=auto;html=1;" edge="1" parent="1" source="QuMT_0o_VnBB8fyhdxgy-6">
          <mxGeometry relative="1" as="geometry">
            <mxPoint x="600" y="350" as="targetPoint" />
          </mxGeometry>
        </mxCell>
        <mxCell id="QuMT_0o_VnBB8fyhdxgy-6" value="i = i + 1" style="rounded=0;whiteSpace=wrap;html=1;" vertex="1" parent="1">
          <mxGeometry x="570" y="280" width="60" height="40" as="geometry" />
        </mxCell>
        <mxCell id="QuMT_0o_VnBB8fyhdxgy-10" value="" style="edgeStyle=orthogonalEdgeStyle;rounded=0;orthogonalLoop=1;jettySize=auto;html=1;" edge="1" parent="1" target="QuMT_0o_VnBB8fyhdxgy-9">
          <mxGeometry relative="1" as="geometry">
            <mxPoint x="565" y="385" as="sourcePoint" />
          </mxGeometry>
        </mxCell>
        <mxCell id="QuMT_0o_VnBB8fyhdxgy-16" value="" style="edgeStyle=orthogonalEdgeStyle;rounded=0;orthogonalLoop=1;jettySize=auto;html=1;" edge="1" parent="1" source="QuMT_0o_VnBB8fyhdxgy-9" target="QuMT_0o_VnBB8fyhdxgy-15">
          <mxGeometry relative="1" as="geometry" />
        </mxCell>
        <mxCell id="QuMT_0o_VnBB8fyhdxgy-9" value="nilai rata-rata" style="shape=parallelogram;html=1;strokeWidth=1;perimeter=parallelogramPerimeter;whiteSpace=wrap;rounded=1;arcSize=12;size=0.23;" vertex="1" parent="1">
          <mxGeometry x="415" y="365" width="105" height="40" as="geometry" />
        </mxCell>
        <mxCell id="QuMT_0o_VnBB8fyhdxgy-15" value="end" style="strokeWidth=1;html=1;shape=mxgraph.flowchart.terminator;whiteSpace=wrap;" vertex="1" parent="1">
          <mxGeometry x="300" y="365" width="80" height="40" as="geometry" />
        </mxCell>
        <mxCell id="QuMT_0o_VnBB8fyhdxgy-17" value="&lt;font style=&quot;font-size: 10px;&quot;&gt;i &amp;lt; jumlah&lt;/font&gt;&lt;div style=&quot;font-size: 10px;&quot;&gt;&lt;font style=&quot;font-size: 10px;&quot;&gt;traces&lt;/font&gt;&lt;/div&gt;" style="strokeWidth=1;html=1;shape=mxgraph.flowchart.decision;whiteSpace=wrap;" vertex="1" parent="1">
          <mxGeometry x="560" y="350" width="80" height="70" as="geometry" />
        </mxCell>
        <mxCell id="QuMT_0o_VnBB8fyhdxgy-18" style="edgeStyle=orthogonalEdgeStyle;rounded=0;orthogonalLoop=1;jettySize=auto;html=1;entryX=0.5;entryY=0;entryDx=0;entryDy=0;entryPerimeter=0;" edge="1" parent="1" source="QuMT_0o_VnBB8fyhdxgy-4" target="QuMT_0o_VnBB8fyhdxgy-15">
          <mxGeometry relative="1" as="geometry">
            <Array as="points">
              <mxPoint x="365" y="350" />
              <mxPoint x="340" y="350" />
            </Array>
          </mxGeometry>
        </mxCell>
        <mxCell id="QuMT_0o_VnBB8fyhdxgy-19" style="edgeStyle=orthogonalEdgeStyle;rounded=0;orthogonalLoop=1;jettySize=auto;html=1;entryX=0.5;entryY=1;entryDx=0;entryDy=0;entryPerimeter=0;" edge="1" parent="1" source="QuMT_0o_VnBB8fyhdxgy-17" target="QuMT_0o_VnBB8fyhdxgy-15">
          <mxGeometry relative="1" as="geometry">
            <Array as="points">
              <mxPoint x="600" y="430" />
              <mxPoint x="340" y="430" />
            </Array>
          </mxGeometry>
        </mxCell>
        <mxCell id="QuMT_0o_VnBB8fyhdxgy-20" value="Yes" style="text;html=1;align=center;verticalAlign=middle;whiteSpace=wrap;rounded=0;" vertex="1" parent="1">
          <mxGeometry x="380" y="265" width="60" height="30" as="geometry" />
        </mxCell>
        <mxCell id="QuMT_0o_VnBB8fyhdxgy-21" value="Tidak" style="text;html=1;align=center;verticalAlign=middle;whiteSpace=wrap;rounded=0;" vertex="1" parent="1">
          <mxGeometry x="355" y="330" width="60" height="30" as="geometry" />
        </mxCell>
        <mxCell id="QuMT_0o_VnBB8fyhdxgy-22" value="Yes" style="text;html=1;align=center;verticalAlign=middle;whiteSpace=wrap;rounded=0;" vertex="1" parent="1">
          <mxGeometry x="510" y="360" width="60" height="30" as="geometry" />
        </mxCell>
        <mxCell id="QuMT_0o_VnBB8fyhdxgy-23" value="Tidak" style="text;html=1;align=center;verticalAlign=middle;whiteSpace=wrap;rounded=0;" vertex="1" parent="1">
          <mxGeometry x="530" y="405" width="60" height="30" as="geometry" />
        </mxCell>
        <mxCell id="QuMT_0o_VnBB8fyhdxgy-24" value="" style="edgeStyle=orthogonalEdgeStyle;rounded=0;orthogonalLoop=1;jettySize=auto;html=1;" edge="1" parent="1" source="QuMT_0o_VnBB8fyhdxgy-25" target="QuMT_0o_VnBB8fyhdxgy-27">
          <mxGeometry relative="1" as="geometry" />
        </mxCell>
        <mxCell id="QuMT_0o_VnBB8fyhdxgy-25" value="start" style="strokeWidth=1;html=1;shape=mxgraph.flowchart.terminator;whiteSpace=wrap;" vertex="1" parent="1">
          <mxGeometry x="105" y="507" width="80" height="40" as="geometry" />
        </mxCell>
        <mxCell id="QuMT_0o_VnBB8fyhdxgy-26" value="" style="edgeStyle=orthogonalEdgeStyle;rounded=0;orthogonalLoop=1;jettySize=auto;html=1;" edge="1" parent="1" source="QuMT_0o_VnBB8fyhdxgy-27" target="QuMT_0o_VnBB8fyhdxgy-29">
          <mxGeometry relative="1" as="geometry" />
        </mxCell>
        <mxCell id="QuMT_0o_VnBB8fyhdxgy-27" value="inisiasi i = 0" style="rounded=0;whiteSpace=wrap;html=1;" vertex="1" parent="1">
          <mxGeometry x="205" y="507" width="80" height="40" as="geometry" />
        </mxCell>
        <mxCell id="QuMT_0o_VnBB8fyhdxgy-28" value="" style="edgeStyle=orthogonalEdgeStyle;rounded=0;orthogonalLoop=1;jettySize=auto;html=1;" edge="1" parent="1" source="QuMT_0o_VnBB8fyhdxgy-29" target="QuMT_0o_VnBB8fyhdxgy-31">
          <mxGeometry relative="1" as="geometry" />
        </mxCell>
        <mxCell id="QuMT_0o_VnBB8fyhdxgy-29" value="&lt;font style=&quot;font-size: 10px;&quot;&gt;i &amp;lt; jumlah&lt;/font&gt;&lt;div style=&quot;font-size: 10px;&quot;&gt;&lt;font style=&quot;font-size: 10px;&quot;&gt;traces&lt;/font&gt;&lt;/div&gt;" style="strokeWidth=1;html=1;shape=mxgraph.flowchart.decision;whiteSpace=wrap;" vertex="1" parent="1">
          <mxGeometry x="315" y="492" width="70" height="70" as="geometry" />
        </mxCell>
        <mxCell id="QuMT_0o_VnBB8fyhdxgy-30" value="" style="edgeStyle=orthogonalEdgeStyle;rounded=0;orthogonalLoop=1;jettySize=auto;html=1;" edge="1" parent="1" source="QuMT_0o_VnBB8fyhdxgy-31" target="QuMT_0o_VnBB8fyhdxgy-33">
          <mxGeometry relative="1" as="geometry" />
        </mxCell>
        <mxCell id="QuMT_0o_VnBB8fyhdxgy-31" value="perhitungan std" style="rounded=0;whiteSpace=wrap;html=1;" vertex="1" parent="1">
          <mxGeometry x="410" y="507" width="115" height="40" as="geometry" />
        </mxCell>
        <mxCell id="QuMT_0o_VnBB8fyhdxgy-32" value="" style="edgeStyle=orthogonalEdgeStyle;rounded=0;orthogonalLoop=1;jettySize=auto;html=1;" edge="1" parent="1" source="QuMT_0o_VnBB8fyhdxgy-33">
          <mxGeometry relative="1" as="geometry">
            <mxPoint x="585" y="577" as="targetPoint" />
          </mxGeometry>
        </mxCell>
        <mxCell id="QuMT_0o_VnBB8fyhdxgy-33" value="i = i + 1" style="rounded=0;whiteSpace=wrap;html=1;" vertex="1" parent="1">
          <mxGeometry x="555" y="507" width="60" height="40" as="geometry" />
        </mxCell>
        <mxCell id="QuMT_0o_VnBB8fyhdxgy-34" value="" style="edgeStyle=orthogonalEdgeStyle;rounded=0;orthogonalLoop=1;jettySize=auto;html=1;" edge="1" parent="1" target="QuMT_0o_VnBB8fyhdxgy-36">
          <mxGeometry relative="1" as="geometry">
            <mxPoint x="550" y="612" as="sourcePoint" />
          </mxGeometry>
        </mxCell>
        <mxCell id="QuMT_0o_VnBB8fyhdxgy-35" value="" style="edgeStyle=orthogonalEdgeStyle;rounded=0;orthogonalLoop=1;jettySize=auto;html=1;" edge="1" parent="1" source="QuMT_0o_VnBB8fyhdxgy-36" target="QuMT_0o_VnBB8fyhdxgy-37">
          <mxGeometry relative="1" as="geometry" />
        </mxCell>
        <mxCell id="QuMT_0o_VnBB8fyhdxgy-36" value="nilai std" style="shape=parallelogram;html=1;strokeWidth=1;perimeter=parallelogramPerimeter;whiteSpace=wrap;rounded=1;arcSize=12;size=0.23;" vertex="1" parent="1">
          <mxGeometry x="400" y="592" width="105" height="40" as="geometry" />
        </mxCell>
        <mxCell id="QuMT_0o_VnBB8fyhdxgy-37" value="end" style="strokeWidth=1;html=1;shape=mxgraph.flowchart.terminator;whiteSpace=wrap;" vertex="1" parent="1">
          <mxGeometry x="285" y="592" width="80" height="40" as="geometry" />
        </mxCell>
        <mxCell id="QuMT_0o_VnBB8fyhdxgy-38" value="&lt;font style=&quot;font-size: 10px;&quot;&gt;i &amp;lt; jumlah&lt;/font&gt;&lt;div style=&quot;font-size: 10px;&quot;&gt;&lt;font style=&quot;font-size: 10px;&quot;&gt;traces&lt;/font&gt;&lt;/div&gt;" style="strokeWidth=1;html=1;shape=mxgraph.flowchart.decision;whiteSpace=wrap;" vertex="1" parent="1">
          <mxGeometry x="545" y="577" width="80" height="70" as="geometry" />
        </mxCell>
        <mxCell id="QuMT_0o_VnBB8fyhdxgy-39" style="edgeStyle=orthogonalEdgeStyle;rounded=0;orthogonalLoop=1;jettySize=auto;html=1;entryX=0.5;entryY=0;entryDx=0;entryDy=0;entryPerimeter=0;" edge="1" parent="1" source="QuMT_0o_VnBB8fyhdxgy-29" target="QuMT_0o_VnBB8fyhdxgy-37">
          <mxGeometry relative="1" as="geometry">
            <Array as="points">
              <mxPoint x="350" y="577" />
              <mxPoint x="325" y="577" />
            </Array>
          </mxGeometry>
        </mxCell>
        <mxCell id="QuMT_0o_VnBB8fyhdxgy-40" style="edgeStyle=orthogonalEdgeStyle;rounded=0;orthogonalLoop=1;jettySize=auto;html=1;entryX=0.5;entryY=1;entryDx=0;entryDy=0;entryPerimeter=0;" edge="1" parent="1" source="QuMT_0o_VnBB8fyhdxgy-38" target="QuMT_0o_VnBB8fyhdxgy-37">
          <mxGeometry relative="1" as="geometry">
            <Array as="points">
              <mxPoint x="585" y="657" />
              <mxPoint x="325" y="657" />
            </Array>
          </mxGeometry>
        </mxCell>
        <mxCell id="QuMT_0o_VnBB8fyhdxgy-41" value="Yes" style="text;html=1;align=center;verticalAlign=middle;whiteSpace=wrap;rounded=0;" vertex="1" parent="1">
          <mxGeometry x="365" y="492" width="60" height="30" as="geometry" />
        </mxCell>
        <mxCell id="QuMT_0o_VnBB8fyhdxgy-42" value="Tidak" style="text;html=1;align=center;verticalAlign=middle;whiteSpace=wrap;rounded=0;" vertex="1" parent="1">
          <mxGeometry x="340" y="557" width="60" height="30" as="geometry" />
        </mxCell>
        <mxCell id="QuMT_0o_VnBB8fyhdxgy-43" value="Yes" style="text;html=1;align=center;verticalAlign=middle;whiteSpace=wrap;rounded=0;" vertex="1" parent="1">
          <mxGeometry x="495" y="587" width="60" height="30" as="geometry" />
        </mxCell>
        <mxCell id="QuMT_0o_VnBB8fyhdxgy-44" value="Tidak" style="text;html=1;align=center;verticalAlign=middle;whiteSpace=wrap;rounded=0;" vertex="1" parent="1">
          <mxGeometry x="515" y="632" width="60" height="30" as="geometry" />
        </mxCell>
        <mxCell id="QuMT_0o_VnBB8fyhdxgy-45" value="" style="edgeStyle=orthogonalEdgeStyle;rounded=0;orthogonalLoop=1;jettySize=auto;html=1;" edge="1" parent="1" source="QuMT_0o_VnBB8fyhdxgy-46" target="QuMT_0o_VnBB8fyhdxgy-48">
          <mxGeometry relative="1" as="geometry" />
        </mxCell>
        <mxCell id="QuMT_0o_VnBB8fyhdxgy-46" value="start" style="strokeWidth=1;html=1;shape=mxgraph.flowchart.terminator;whiteSpace=wrap;" vertex="1" parent="1">
          <mxGeometry x="90" y="708" width="80" height="40" as="geometry" />
        </mxCell>
        <mxCell id="QuMT_0o_VnBB8fyhdxgy-47" value="" style="edgeStyle=orthogonalEdgeStyle;rounded=0;orthogonalLoop=1;jettySize=auto;html=1;" edge="1" parent="1" source="QuMT_0o_VnBB8fyhdxgy-48" target="QuMT_0o_VnBB8fyhdxgy-50">
          <mxGeometry relative="1" as="geometry" />
        </mxCell>
        <mxCell id="QuMT_0o_VnBB8fyhdxgy-48" value="inisiasi i = 0" style="rounded=0;whiteSpace=wrap;html=1;" vertex="1" parent="1">
          <mxGeometry x="190" y="708" width="80" height="40" as="geometry" />
        </mxCell>
        <mxCell id="QuMT_0o_VnBB8fyhdxgy-49" value="" style="edgeStyle=orthogonalEdgeStyle;rounded=0;orthogonalLoop=1;jettySize=auto;html=1;" edge="1" parent="1" source="QuMT_0o_VnBB8fyhdxgy-50" target="QuMT_0o_VnBB8fyhdxgy-52">
          <mxGeometry relative="1" as="geometry" />
        </mxCell>
        <mxCell id="QuMT_0o_VnBB8fyhdxgy-50" value="&lt;font style=&quot;font-size: 10px;&quot;&gt;i &amp;lt; jumlah&lt;/font&gt;&lt;div style=&quot;font-size: 10px;&quot;&gt;&lt;font style=&quot;font-size: 10px;&quot;&gt;traces&lt;/font&gt;&lt;/div&gt;" style="strokeWidth=1;html=1;shape=mxgraph.flowchart.decision;whiteSpace=wrap;" vertex="1" parent="1">
          <mxGeometry x="300" y="693" width="70" height="70" as="geometry" />
        </mxCell>
        <mxCell id="QuMT_0o_VnBB8fyhdxgy-51" value="" style="edgeStyle=orthogonalEdgeStyle;rounded=0;orthogonalLoop=1;jettySize=auto;html=1;" edge="1" parent="1" source="QuMT_0o_VnBB8fyhdxgy-52" target="QuMT_0o_VnBB8fyhdxgy-54">
          <mxGeometry relative="1" as="geometry" />
        </mxCell>
        <mxCell id="QuMT_0o_VnBB8fyhdxgy-52" value="perhitungan median" style="rounded=0;whiteSpace=wrap;html=1;" vertex="1" parent="1">
          <mxGeometry x="395" y="708" width="115" height="40" as="geometry" />
        </mxCell>
        <mxCell id="QuMT_0o_VnBB8fyhdxgy-53" value="" style="edgeStyle=orthogonalEdgeStyle;rounded=0;orthogonalLoop=1;jettySize=auto;html=1;" edge="1" parent="1" source="QuMT_0o_VnBB8fyhdxgy-54">
          <mxGeometry relative="1" as="geometry">
            <mxPoint x="570" y="778" as="targetPoint" />
          </mxGeometry>
        </mxCell>
        <mxCell id="QuMT_0o_VnBB8fyhdxgy-54" value="i = i + 1" style="rounded=0;whiteSpace=wrap;html=1;" vertex="1" parent="1">
          <mxGeometry x="540" y="708" width="60" height="40" as="geometry" />
        </mxCell>
        <mxCell id="QuMT_0o_VnBB8fyhdxgy-55" value="" style="edgeStyle=orthogonalEdgeStyle;rounded=0;orthogonalLoop=1;jettySize=auto;html=1;" edge="1" parent="1" target="QuMT_0o_VnBB8fyhdxgy-57">
          <mxGeometry relative="1" as="geometry">
            <mxPoint x="535" y="813" as="sourcePoint" />
          </mxGeometry>
        </mxCell>
        <mxCell id="QuMT_0o_VnBB8fyhdxgy-56" value="" style="edgeStyle=orthogonalEdgeStyle;rounded=0;orthogonalLoop=1;jettySize=auto;html=1;" edge="1" parent="1" source="QuMT_0o_VnBB8fyhdxgy-57" target="QuMT_0o_VnBB8fyhdxgy-58">
          <mxGeometry relative="1" as="geometry" />
        </mxCell>
        <mxCell id="QuMT_0o_VnBB8fyhdxgy-57" value="nilai median" style="shape=parallelogram;html=1;strokeWidth=1;perimeter=parallelogramPerimeter;whiteSpace=wrap;rounded=1;arcSize=12;size=0.23;" vertex="1" parent="1">
          <mxGeometry x="385" y="793" width="105" height="40" as="geometry" />
        </mxCell>
        <mxCell id="QuMT_0o_VnBB8fyhdxgy-58" value="end" style="strokeWidth=1;html=1;shape=mxgraph.flowchart.terminator;whiteSpace=wrap;" vertex="1" parent="1">
          <mxGeometry x="270" y="793" width="80" height="40" as="geometry" />
        </mxCell>
        <mxCell id="QuMT_0o_VnBB8fyhdxgy-59" value="&lt;font style=&quot;font-size: 10px;&quot;&gt;i &amp;lt; jumlah&lt;/font&gt;&lt;div style=&quot;font-size: 10px;&quot;&gt;&lt;font style=&quot;font-size: 10px;&quot;&gt;traces&lt;/font&gt;&lt;/div&gt;" style="strokeWidth=1;html=1;shape=mxgraph.flowchart.decision;whiteSpace=wrap;" vertex="1" parent="1">
          <mxGeometry x="530" y="778" width="80" height="70" as="geometry" />
        </mxCell>
        <mxCell id="QuMT_0o_VnBB8fyhdxgy-60" style="edgeStyle=orthogonalEdgeStyle;rounded=0;orthogonalLoop=1;jettySize=auto;html=1;entryX=0.5;entryY=0;entryDx=0;entryDy=0;entryPerimeter=0;" edge="1" parent="1" source="QuMT_0o_VnBB8fyhdxgy-50" target="QuMT_0o_VnBB8fyhdxgy-58">
          <mxGeometry relative="1" as="geometry">
            <Array as="points">
              <mxPoint x="335" y="778" />
              <mxPoint x="310" y="778" />
            </Array>
          </mxGeometry>
        </mxCell>
        <mxCell id="QuMT_0o_VnBB8fyhdxgy-61" style="edgeStyle=orthogonalEdgeStyle;rounded=0;orthogonalLoop=1;jettySize=auto;html=1;entryX=0.5;entryY=1;entryDx=0;entryDy=0;entryPerimeter=0;" edge="1" parent="1" source="QuMT_0o_VnBB8fyhdxgy-59" target="QuMT_0o_VnBB8fyhdxgy-58">
          <mxGeometry relative="1" as="geometry">
            <Array as="points">
              <mxPoint x="570" y="858" />
              <mxPoint x="310" y="858" />
            </Array>
          </mxGeometry>
        </mxCell>
        <mxCell id="QuMT_0o_VnBB8fyhdxgy-62" value="Yes" style="text;html=1;align=center;verticalAlign=middle;whiteSpace=wrap;rounded=0;" vertex="1" parent="1">
          <mxGeometry x="350" y="693" width="60" height="30" as="geometry" />
        </mxCell>
        <mxCell id="QuMT_0o_VnBB8fyhdxgy-63" value="Tidak" style="text;html=1;align=center;verticalAlign=middle;whiteSpace=wrap;rounded=0;" vertex="1" parent="1">
          <mxGeometry x="325" y="758" width="60" height="30" as="geometry" />
        </mxCell>
        <mxCell id="QuMT_0o_VnBB8fyhdxgy-64" value="Yes" style="text;html=1;align=center;verticalAlign=middle;whiteSpace=wrap;rounded=0;" vertex="1" parent="1">
          <mxGeometry x="480" y="788" width="60" height="30" as="geometry" />
        </mxCell>
        <mxCell id="QuMT_0o_VnBB8fyhdxgy-65" value="" style="edgeStyle=orthogonalEdgeStyle;rounded=0;orthogonalLoop=1;jettySize=auto;html=1;" edge="1" parent="1" source="QuMT_0o_VnBB8fyhdxgy-66" target="QuMT_0o_VnBB8fyhdxgy-68">
          <mxGeometry relative="1" as="geometry" />
        </mxCell>
        <mxCell id="QuMT_0o_VnBB8fyhdxgy-66" value="start" style="strokeWidth=1;html=1;shape=mxgraph.flowchart.terminator;whiteSpace=wrap;" vertex="1" parent="1">
          <mxGeometry x="90" y="893" width="80" height="40" as="geometry" />
        </mxCell>
        <mxCell id="QuMT_0o_VnBB8fyhdxgy-67" value="" style="edgeStyle=orthogonalEdgeStyle;rounded=0;orthogonalLoop=1;jettySize=auto;html=1;" edge="1" parent="1" source="QuMT_0o_VnBB8fyhdxgy-68" target="QuMT_0o_VnBB8fyhdxgy-70">
          <mxGeometry relative="1" as="geometry" />
        </mxCell>
        <mxCell id="QuMT_0o_VnBB8fyhdxgy-68" value="inisiasi i = 0" style="rounded=0;whiteSpace=wrap;html=1;" vertex="1" parent="1">
          <mxGeometry x="190" y="893" width="80" height="40" as="geometry" />
        </mxCell>
        <mxCell id="QuMT_0o_VnBB8fyhdxgy-69" value="" style="edgeStyle=orthogonalEdgeStyle;rounded=0;orthogonalLoop=1;jettySize=auto;html=1;" edge="1" parent="1" source="QuMT_0o_VnBB8fyhdxgy-70" target="QuMT_0o_VnBB8fyhdxgy-72">
          <mxGeometry relative="1" as="geometry" />
        </mxCell>
        <mxCell id="QuMT_0o_VnBB8fyhdxgy-70" value="&lt;font style=&quot;font-size: 10px;&quot;&gt;i &amp;lt; jumlah&lt;/font&gt;&lt;div style=&quot;font-size: 10px;&quot;&gt;&lt;font style=&quot;font-size: 10px;&quot;&gt;traces&lt;/font&gt;&lt;/div&gt;" style="strokeWidth=1;html=1;shape=mxgraph.flowchart.decision;whiteSpace=wrap;" vertex="1" parent="1">
          <mxGeometry x="300" y="878" width="70" height="70" as="geometry" />
        </mxCell>
        <mxCell id="QuMT_0o_VnBB8fyhdxgy-71" value="" style="edgeStyle=orthogonalEdgeStyle;rounded=0;orthogonalLoop=1;jettySize=auto;html=1;" edge="1" parent="1" source="QuMT_0o_VnBB8fyhdxgy-72" target="QuMT_0o_VnBB8fyhdxgy-74">
          <mxGeometry relative="1" as="geometry" />
        </mxCell>
        <mxCell id="QuMT_0o_VnBB8fyhdxgy-72" value="perhitungan jarak" style="rounded=0;whiteSpace=wrap;html=1;" vertex="1" parent="1">
          <mxGeometry x="395" y="893" width="115" height="40" as="geometry" />
        </mxCell>
        <mxCell id="QuMT_0o_VnBB8fyhdxgy-73" value="" style="edgeStyle=orthogonalEdgeStyle;rounded=0;orthogonalLoop=1;jettySize=auto;html=1;" edge="1" parent="1" source="QuMT_0o_VnBB8fyhdxgy-74">
          <mxGeometry relative="1" as="geometry">
            <mxPoint x="570" y="963" as="targetPoint" />
          </mxGeometry>
        </mxCell>
        <mxCell id="QuMT_0o_VnBB8fyhdxgy-74" value="i = i + 1" style="rounded=0;whiteSpace=wrap;html=1;" vertex="1" parent="1">
          <mxGeometry x="540" y="893" width="60" height="40" as="geometry" />
        </mxCell>
        <mxCell id="QuMT_0o_VnBB8fyhdxgy-75" value="" style="edgeStyle=orthogonalEdgeStyle;rounded=0;orthogonalLoop=1;jettySize=auto;html=1;" edge="1" parent="1" target="QuMT_0o_VnBB8fyhdxgy-77">
          <mxGeometry relative="1" as="geometry">
            <mxPoint x="535" y="998" as="sourcePoint" />
          </mxGeometry>
        </mxCell>
        <mxCell id="QuMT_0o_VnBB8fyhdxgy-76" value="" style="edgeStyle=orthogonalEdgeStyle;rounded=0;orthogonalLoop=1;jettySize=auto;html=1;" edge="1" parent="1" source="QuMT_0o_VnBB8fyhdxgy-77" target="QuMT_0o_VnBB8fyhdxgy-78">
          <mxGeometry relative="1" as="geometry" />
        </mxCell>
        <mxCell id="QuMT_0o_VnBB8fyhdxgy-77" value="nilai jarak" style="shape=parallelogram;html=1;strokeWidth=1;perimeter=parallelogramPerimeter;whiteSpace=wrap;rounded=1;arcSize=12;size=0.23;" vertex="1" parent="1">
          <mxGeometry x="385" y="978" width="105" height="40" as="geometry" />
        </mxCell>
        <mxCell id="QuMT_0o_VnBB8fyhdxgy-78" value="end" style="strokeWidth=1;html=1;shape=mxgraph.flowchart.terminator;whiteSpace=wrap;" vertex="1" parent="1">
          <mxGeometry x="270" y="978" width="80" height="40" as="geometry" />
        </mxCell>
        <mxCell id="QuMT_0o_VnBB8fyhdxgy-79" value="&lt;font style=&quot;font-size: 10px;&quot;&gt;i &amp;lt; jumlah&lt;/font&gt;&lt;div style=&quot;font-size: 10px;&quot;&gt;&lt;font style=&quot;font-size: 10px;&quot;&gt;traces&lt;/font&gt;&lt;/div&gt;" style="strokeWidth=1;html=1;shape=mxgraph.flowchart.decision;whiteSpace=wrap;" vertex="1" parent="1">
          <mxGeometry x="530" y="963" width="80" height="70" as="geometry" />
        </mxCell>
        <mxCell id="QuMT_0o_VnBB8fyhdxgy-80" style="edgeStyle=orthogonalEdgeStyle;rounded=0;orthogonalLoop=1;jettySize=auto;html=1;entryX=0.5;entryY=0;entryDx=0;entryDy=0;entryPerimeter=0;" edge="1" parent="1" source="QuMT_0o_VnBB8fyhdxgy-70" target="QuMT_0o_VnBB8fyhdxgy-78">
          <mxGeometry relative="1" as="geometry">
            <Array as="points">
              <mxPoint x="335" y="963" />
              <mxPoint x="310" y="963" />
            </Array>
          </mxGeometry>
        </mxCell>
        <mxCell id="QuMT_0o_VnBB8fyhdxgy-81" style="edgeStyle=orthogonalEdgeStyle;rounded=0;orthogonalLoop=1;jettySize=auto;html=1;entryX=0.5;entryY=1;entryDx=0;entryDy=0;entryPerimeter=0;" edge="1" parent="1" source="QuMT_0o_VnBB8fyhdxgy-79" target="QuMT_0o_VnBB8fyhdxgy-78">
          <mxGeometry relative="1" as="geometry">
            <Array as="points">
              <mxPoint x="570" y="1043" />
              <mxPoint x="310" y="1043" />
            </Array>
          </mxGeometry>
        </mxCell>
        <mxCell id="QuMT_0o_VnBB8fyhdxgy-82" value="Yes" style="text;html=1;align=center;verticalAlign=middle;whiteSpace=wrap;rounded=0;" vertex="1" parent="1">
          <mxGeometry x="350" y="878" width="60" height="30" as="geometry" />
        </mxCell>
        <mxCell id="QuMT_0o_VnBB8fyhdxgy-83" value="Tidak" style="text;html=1;align=center;verticalAlign=middle;whiteSpace=wrap;rounded=0;" vertex="1" parent="1">
          <mxGeometry x="325" y="943" width="60" height="30" as="geometry" />
        </mxCell>
        <mxCell id="QuMT_0o_VnBB8fyhdxgy-84" value="Yes" style="text;html=1;align=center;verticalAlign=middle;whiteSpace=wrap;rounded=0;" vertex="1" parent="1">
          <mxGeometry x="480" y="973" width="60" height="30" as="geometry" />
        </mxCell>
        <mxCell id="QuMT_0o_VnBB8fyhdxgy-85" value="" style="edgeStyle=orthogonalEdgeStyle;rounded=0;orthogonalLoop=1;jettySize=auto;html=1;" edge="1" parent="1" source="QuMT_0o_VnBB8fyhdxgy-86" target="QuMT_0o_VnBB8fyhdxgy-88">
          <mxGeometry relative="1" as="geometry" />
        </mxCell>
        <mxCell id="QuMT_0o_VnBB8fyhdxgy-86" value="start" style="strokeWidth=1;html=1;shape=mxgraph.flowchart.terminator;whiteSpace=wrap;" vertex="1" parent="1">
          <mxGeometry x="88" y="1125" width="80" height="40" as="geometry" />
        </mxCell>
        <mxCell id="QuMT_0o_VnBB8fyhdxgy-87" value="" style="edgeStyle=orthogonalEdgeStyle;rounded=0;orthogonalLoop=1;jettySize=auto;html=1;entryX=0;entryY=0.5;entryDx=0;entryDy=0;" edge="1" parent="1" source="QuMT_0o_VnBB8fyhdxgy-88" target="QuMT_0o_VnBB8fyhdxgy-92">
          <mxGeometry relative="1" as="geometry">
            <mxPoint x="297.9999999999998" y="1145" as="targetPoint" />
          </mxGeometry>
        </mxCell>
        <mxCell id="QuMT_0o_VnBB8fyhdxgy-88" value="inisiasi i = 0" style="rounded=0;whiteSpace=wrap;html=1;" vertex="1" parent="1">
          <mxGeometry x="188" y="1125" width="80" height="40" as="geometry" />
        </mxCell>
        <mxCell id="QuMT_0o_VnBB8fyhdxgy-107" value="" style="edgeStyle=orthogonalEdgeStyle;rounded=0;orthogonalLoop=1;jettySize=auto;html=1;" edge="1" parent="1" source="QuMT_0o_VnBB8fyhdxgy-92" target="QuMT_0o_VnBB8fyhdxgy-106">
          <mxGeometry relative="1" as="geometry" />
        </mxCell>
        <mxCell id="QuMT_0o_VnBB8fyhdxgy-92" value="sorting data array ke-i" style="rounded=0;whiteSpace=wrap;html=1;" vertex="1" parent="1">
          <mxGeometry x="300" y="1125" width="115" height="40" as="geometry" />
        </mxCell>
        <mxCell id="QuMT_0o_VnBB8fyhdxgy-111" value="" style="edgeStyle=orthogonalEdgeStyle;rounded=0;orthogonalLoop=1;jettySize=auto;html=1;" edge="1" parent="1" source="QuMT_0o_VnBB8fyhdxgy-106" target="QuMT_0o_VnBB8fyhdxgy-110">
          <mxGeometry relative="1" as="geometry" />
        </mxCell>
        <mxCell id="QuMT_0o_VnBB8fyhdxgy-106" value="perhitungan Q1" style="rounded=0;whiteSpace=wrap;html=1;" vertex="1" parent="1">
          <mxGeometry x="450" y="1125" width="76" height="40" as="geometry" />
        </mxCell>
        <mxCell id="QuMT_0o_VnBB8fyhdxgy-113" value="" style="edgeStyle=orthogonalEdgeStyle;rounded=0;orthogonalLoop=1;jettySize=auto;html=1;exitX=0.5;exitY=0;exitDx=0;exitDy=0;exitPerimeter=0;" edge="1" parent="1" source="QuMT_0o_VnBB8fyhdxgy-109" target="QuMT_0o_VnBB8fyhdxgy-92">
          <mxGeometry relative="1" as="geometry">
            <Array as="points">
              <mxPoint x="358" y="1180" />
            </Array>
          </mxGeometry>
        </mxCell>
        <mxCell id="QuMT_0o_VnBB8fyhdxgy-116" value="" style="edgeStyle=orthogonalEdgeStyle;rounded=0;orthogonalLoop=1;jettySize=auto;html=1;" edge="1" parent="1" source="QuMT_0o_VnBB8fyhdxgy-109" target="QuMT_0o_VnBB8fyhdxgy-115">
          <mxGeometry relative="1" as="geometry" />
        </mxCell>
        <mxCell id="QuMT_0o_VnBB8fyhdxgy-109" value="&lt;font style=&quot;font-size: 10px;&quot;&gt;i &amp;lt; jumlah&lt;/font&gt;&lt;div style=&quot;font-size: 10px;&quot;&gt;&lt;font style=&quot;font-size: 10px;&quot;&gt;traces&lt;/font&gt;&lt;/div&gt;" style="strokeWidth=1;html=1;shape=mxgraph.flowchart.decision;whiteSpace=wrap;" vertex="1" parent="1">
          <mxGeometry x="305" y="1180" width="80" height="70" as="geometry" />
        </mxCell>
        <mxCell id="QuMT_0o_VnBB8fyhdxgy-112" value="" style="edgeStyle=orthogonalEdgeStyle;rounded=0;orthogonalLoop=1;jettySize=auto;html=1;" edge="1" parent="1" source="QuMT_0o_VnBB8fyhdxgy-110" target="QuMT_0o_VnBB8fyhdxgy-109">
          <mxGeometry relative="1" as="geometry" />
        </mxCell>
        <mxCell id="QuMT_0o_VnBB8fyhdxgy-110" value="i = i + 1" style="rounded=0;whiteSpace=wrap;html=1;" vertex="1" parent="1">
          <mxGeometry x="455.25" y="1195" width="65.5" height="40" as="geometry" />
        </mxCell>
        <mxCell id="QuMT_0o_VnBB8fyhdxgy-114" value="Yes" style="text;html=1;align=center;verticalAlign=middle;whiteSpace=wrap;rounded=0;" vertex="1" parent="1">
          <mxGeometry x="355" y="1165" width="60" height="30" as="geometry" />
        </mxCell>
        <mxCell id="QuMT_0o_VnBB8fyhdxgy-118" value="" style="edgeStyle=orthogonalEdgeStyle;rounded=0;orthogonalLoop=1;jettySize=auto;html=1;" edge="1" parent="1" source="QuMT_0o_VnBB8fyhdxgy-115" target="QuMT_0o_VnBB8fyhdxgy-117">
          <mxGeometry relative="1" as="geometry" />
        </mxCell>
        <mxCell id="QuMT_0o_VnBB8fyhdxgy-115" value="nilai Q1" style="shape=parallelogram;html=1;strokeWidth=1;perimeter=parallelogramPerimeter;whiteSpace=wrap;rounded=1;arcSize=12;size=0.23;" vertex="1" parent="1">
          <mxGeometry x="175.5" y="1195" width="105" height="40" as="geometry" />
        </mxCell>
        <mxCell id="QuMT_0o_VnBB8fyhdxgy-117" value="End" style="strokeWidth=1;html=1;shape=mxgraph.flowchart.terminator;whiteSpace=wrap;" vertex="1" parent="1">
          <mxGeometry x="88" y="1195" width="80" height="40" as="geometry" />
        </mxCell>
        <mxCell id="QuMT_0o_VnBB8fyhdxgy-119" value="" style="edgeStyle=orthogonalEdgeStyle;rounded=0;orthogonalLoop=1;jettySize=auto;html=1;" edge="1" parent="1" source="QuMT_0o_VnBB8fyhdxgy-120" target="QuMT_0o_VnBB8fyhdxgy-122">
          <mxGeometry relative="1" as="geometry" />
        </mxCell>
        <mxCell id="QuMT_0o_VnBB8fyhdxgy-120" value="start" style="strokeWidth=1;html=1;shape=mxgraph.flowchart.terminator;whiteSpace=wrap;" vertex="1" parent="1">
          <mxGeometry x="91" y="1306" width="80" height="40" as="geometry" />
        </mxCell>
        <mxCell id="QuMT_0o_VnBB8fyhdxgy-121" value="" style="edgeStyle=orthogonalEdgeStyle;rounded=0;orthogonalLoop=1;jettySize=auto;html=1;entryX=0;entryY=0.5;entryDx=0;entryDy=0;" edge="1" parent="1" source="QuMT_0o_VnBB8fyhdxgy-122" target="QuMT_0o_VnBB8fyhdxgy-124">
          <mxGeometry relative="1" as="geometry">
            <mxPoint x="300.9999999999998" y="1326" as="targetPoint" />
          </mxGeometry>
        </mxCell>
        <mxCell id="QuMT_0o_VnBB8fyhdxgy-122" value="inisiasi i = 0" style="rounded=0;whiteSpace=wrap;html=1;" vertex="1" parent="1">
          <mxGeometry x="191" y="1306" width="80" height="40" as="geometry" />
        </mxCell>
        <mxCell id="QuMT_0o_VnBB8fyhdxgy-123" value="" style="edgeStyle=orthogonalEdgeStyle;rounded=0;orthogonalLoop=1;jettySize=auto;html=1;" edge="1" parent="1" source="QuMT_0o_VnBB8fyhdxgy-124" target="QuMT_0o_VnBB8fyhdxgy-126">
          <mxGeometry relative="1" as="geometry" />
        </mxCell>
        <mxCell id="QuMT_0o_VnBB8fyhdxgy-124" value="sorting data array ke-i" style="rounded=0;whiteSpace=wrap;html=1;" vertex="1" parent="1">
          <mxGeometry x="303" y="1306" width="115" height="40" as="geometry" />
        </mxCell>
        <mxCell id="QuMT_0o_VnBB8fyhdxgy-125" value="" style="edgeStyle=orthogonalEdgeStyle;rounded=0;orthogonalLoop=1;jettySize=auto;html=1;" edge="1" parent="1" source="QuMT_0o_VnBB8fyhdxgy-126" target="QuMT_0o_VnBB8fyhdxgy-131">
          <mxGeometry relative="1" as="geometry" />
        </mxCell>
        <mxCell id="QuMT_0o_VnBB8fyhdxgy-126" value="perhitungan Q3" style="rounded=0;whiteSpace=wrap;html=1;" vertex="1" parent="1">
          <mxGeometry x="453" y="1306" width="76" height="40" as="geometry" />
        </mxCell>
        <mxCell id="QuMT_0o_VnBB8fyhdxgy-127" value="" style="edgeStyle=orthogonalEdgeStyle;rounded=0;orthogonalLoop=1;jettySize=auto;html=1;exitX=0.5;exitY=0;exitDx=0;exitDy=0;exitPerimeter=0;" edge="1" parent="1" source="QuMT_0o_VnBB8fyhdxgy-129" target="QuMT_0o_VnBB8fyhdxgy-124">
          <mxGeometry relative="1" as="geometry">
            <Array as="points">
              <mxPoint x="361" y="1361" />
            </Array>
          </mxGeometry>
        </mxCell>
        <mxCell id="QuMT_0o_VnBB8fyhdxgy-128" value="" style="edgeStyle=orthogonalEdgeStyle;rounded=0;orthogonalLoop=1;jettySize=auto;html=1;" edge="1" parent="1" source="QuMT_0o_VnBB8fyhdxgy-129" target="QuMT_0o_VnBB8fyhdxgy-134">
          <mxGeometry relative="1" as="geometry" />
        </mxCell>
        <mxCell id="QuMT_0o_VnBB8fyhdxgy-129" value="&lt;font style=&quot;font-size: 10px;&quot;&gt;i &amp;lt; jumlah&lt;/font&gt;&lt;div style=&quot;font-size: 10px;&quot;&gt;&lt;font style=&quot;font-size: 10px;&quot;&gt;traces&lt;/font&gt;&lt;/div&gt;" style="strokeWidth=1;html=1;shape=mxgraph.flowchart.decision;whiteSpace=wrap;" vertex="1" parent="1">
          <mxGeometry x="308" y="1361" width="80" height="70" as="geometry" />
        </mxCell>
        <mxCell id="QuMT_0o_VnBB8fyhdxgy-130" value="" style="edgeStyle=orthogonalEdgeStyle;rounded=0;orthogonalLoop=1;jettySize=auto;html=1;" edge="1" parent="1" source="QuMT_0o_VnBB8fyhdxgy-131" target="QuMT_0o_VnBB8fyhdxgy-129">
          <mxGeometry relative="1" as="geometry" />
        </mxCell>
        <mxCell id="QuMT_0o_VnBB8fyhdxgy-131" value="i = i + 1" style="rounded=0;whiteSpace=wrap;html=1;" vertex="1" parent="1">
          <mxGeometry x="458.25" y="1376" width="65.5" height="40" as="geometry" />
        </mxCell>
        <mxCell id="QuMT_0o_VnBB8fyhdxgy-132" value="Yes" style="text;html=1;align=center;verticalAlign=middle;whiteSpace=wrap;rounded=0;" vertex="1" parent="1">
          <mxGeometry x="358" y="1346" width="60" height="30" as="geometry" />
        </mxCell>
        <mxCell id="QuMT_0o_VnBB8fyhdxgy-133" value="" style="edgeStyle=orthogonalEdgeStyle;rounded=0;orthogonalLoop=1;jettySize=auto;html=1;" edge="1" parent="1" source="QuMT_0o_VnBB8fyhdxgy-134" target="QuMT_0o_VnBB8fyhdxgy-135">
          <mxGeometry relative="1" as="geometry" />
        </mxCell>
        <mxCell id="QuMT_0o_VnBB8fyhdxgy-134" value="nilai Q3" style="shape=parallelogram;html=1;strokeWidth=1;perimeter=parallelogramPerimeter;whiteSpace=wrap;rounded=1;arcSize=12;size=0.23;" vertex="1" parent="1">
          <mxGeometry x="178.5" y="1376" width="105" height="40" as="geometry" />
        </mxCell>
        <mxCell id="QuMT_0o_VnBB8fyhdxgy-135" value="End" style="strokeWidth=1;html=1;shape=mxgraph.flowchart.terminator;whiteSpace=wrap;" vertex="1" parent="1">
          <mxGeometry x="91" y="1376" width="80" height="40" as="geometry" />
        </mxCell>
        <mxCell id="QuMT_0o_VnBB8fyhdxgy-153" value="" style="edgeStyle=orthogonalEdgeStyle;rounded=0;orthogonalLoop=1;jettySize=auto;html=1;" edge="1" parent="1" source="QuMT_0o_VnBB8fyhdxgy-154" target="QuMT_0o_VnBB8fyhdxgy-156">
          <mxGeometry relative="1" as="geometry" />
        </mxCell>
        <mxCell id="QuMT_0o_VnBB8fyhdxgy-154" value="start" style="strokeWidth=1;html=1;shape=mxgraph.flowchart.terminator;whiteSpace=wrap;" vertex="1" parent="1">
          <mxGeometry x="82" y="1483" width="80" height="40" as="geometry" />
        </mxCell>
        <mxCell id="QuMT_0o_VnBB8fyhdxgy-155" value="" style="edgeStyle=orthogonalEdgeStyle;rounded=0;orthogonalLoop=1;jettySize=auto;html=1;entryX=0;entryY=0.5;entryDx=0;entryDy=0;" edge="1" parent="1" source="QuMT_0o_VnBB8fyhdxgy-156">
          <mxGeometry relative="1" as="geometry">
            <mxPoint x="294.0000000000001" y="1503" as="targetPoint" />
          </mxGeometry>
        </mxCell>
        <mxCell id="QuMT_0o_VnBB8fyhdxgy-156" value="inisiasi i = 0" style="rounded=0;whiteSpace=wrap;html=1;" vertex="1" parent="1">
          <mxGeometry x="182" y="1483" width="80" height="40" as="geometry" />
        </mxCell>
        <mxCell id="QuMT_0o_VnBB8fyhdxgy-159" value="" style="edgeStyle=orthogonalEdgeStyle;rounded=0;orthogonalLoop=1;jettySize=auto;html=1;" edge="1" parent="1" source="QuMT_0o_VnBB8fyhdxgy-160" target="QuMT_0o_VnBB8fyhdxgy-165">
          <mxGeometry relative="1" as="geometry" />
        </mxCell>
        <mxCell id="QuMT_0o_VnBB8fyhdxgy-160" value="perhitungan IQR row i" style="rounded=0;whiteSpace=wrap;html=1;" vertex="1" parent="1">
          <mxGeometry x="293" y="1483" width="227" height="40" as="geometry" />
        </mxCell>
        <mxCell id="QuMT_0o_VnBB8fyhdxgy-161" value="" style="edgeStyle=orthogonalEdgeStyle;rounded=0;orthogonalLoop=1;jettySize=auto;html=1;exitX=0.5;exitY=0;exitDx=0;exitDy=0;exitPerimeter=0;" edge="1" parent="1" source="QuMT_0o_VnBB8fyhdxgy-163">
          <mxGeometry relative="1" as="geometry">
            <Array as="points">
              <mxPoint x="352" y="1538" />
            </Array>
            <mxPoint x="352" y="1523" as="targetPoint" />
          </mxGeometry>
        </mxCell>
        <mxCell id="QuMT_0o_VnBB8fyhdxgy-162" value="" style="edgeStyle=orthogonalEdgeStyle;rounded=0;orthogonalLoop=1;jettySize=auto;html=1;" edge="1" parent="1" source="QuMT_0o_VnBB8fyhdxgy-163" target="QuMT_0o_VnBB8fyhdxgy-168">
          <mxGeometry relative="1" as="geometry" />
        </mxCell>
        <mxCell id="QuMT_0o_VnBB8fyhdxgy-163" value="&lt;font style=&quot;font-size: 10px;&quot;&gt;i &amp;lt; jumlah&lt;/font&gt;&lt;div style=&quot;font-size: 10px;&quot;&gt;&lt;font style=&quot;font-size: 10px;&quot;&gt;traces&lt;/font&gt;&lt;/div&gt;" style="strokeWidth=1;html=1;shape=mxgraph.flowchart.decision;whiteSpace=wrap;" vertex="1" parent="1">
          <mxGeometry x="299" y="1538" width="80" height="70" as="geometry" />
        </mxCell>
        <mxCell id="QuMT_0o_VnBB8fyhdxgy-164" value="" style="edgeStyle=orthogonalEdgeStyle;rounded=0;orthogonalLoop=1;jettySize=auto;html=1;" edge="1" parent="1" source="QuMT_0o_VnBB8fyhdxgy-165" target="QuMT_0o_VnBB8fyhdxgy-163">
          <mxGeometry relative="1" as="geometry" />
        </mxCell>
        <mxCell id="QuMT_0o_VnBB8fyhdxgy-165" value="i = i + 1" style="rounded=0;whiteSpace=wrap;html=1;" vertex="1" parent="1">
          <mxGeometry x="449.25" y="1553" width="65.5" height="40" as="geometry" />
        </mxCell>
        <mxCell id="QuMT_0o_VnBB8fyhdxgy-166" value="Yes" style="text;html=1;align=center;verticalAlign=middle;whiteSpace=wrap;rounded=0;" vertex="1" parent="1">
          <mxGeometry x="349" y="1523" width="60" height="30" as="geometry" />
        </mxCell>
        <mxCell id="QuMT_0o_VnBB8fyhdxgy-167" value="" style="edgeStyle=orthogonalEdgeStyle;rounded=0;orthogonalLoop=1;jettySize=auto;html=1;" edge="1" parent="1" source="QuMT_0o_VnBB8fyhdxgy-168" target="QuMT_0o_VnBB8fyhdxgy-169">
          <mxGeometry relative="1" as="geometry" />
        </mxCell>
        <mxCell id="QuMT_0o_VnBB8fyhdxgy-168" value="nilai IQR" style="shape=parallelogram;html=1;strokeWidth=1;perimeter=parallelogramPerimeter;whiteSpace=wrap;rounded=1;arcSize=12;size=0.23;" vertex="1" parent="1">
          <mxGeometry x="169.5" y="1553" width="105" height="40" as="geometry" />
        </mxCell>
        <mxCell id="QuMT_0o_VnBB8fyhdxgy-169" value="End" style="strokeWidth=1;html=1;shape=mxgraph.flowchart.terminator;whiteSpace=wrap;" vertex="1" parent="1">
          <mxGeometry x="82" y="1553" width="80" height="40" as="geometry" />
        </mxCell>
        <mxCell id="QuMT_0o_VnBB8fyhdxgy-171" value="" style="edgeStyle=orthogonalEdgeStyle;rounded=0;orthogonalLoop=1;jettySize=auto;html=1;" edge="1" parent="1" source="QuMT_0o_VnBB8fyhdxgy-172" target="QuMT_0o_VnBB8fyhdxgy-174">
          <mxGeometry relative="1" as="geometry" />
        </mxCell>
        <mxCell id="QuMT_0o_VnBB8fyhdxgy-172" value="start" style="strokeWidth=1;html=1;shape=mxgraph.flowchart.terminator;whiteSpace=wrap;" vertex="1" parent="1">
          <mxGeometry x="85.75" y="1632" width="80" height="40" as="geometry" />
        </mxCell>
        <mxCell id="QuMT_0o_VnBB8fyhdxgy-173" value="" style="edgeStyle=orthogonalEdgeStyle;rounded=0;orthogonalLoop=1;jettySize=auto;html=1;entryX=0;entryY=0.5;entryDx=0;entryDy=0;" edge="1" parent="1" source="QuMT_0o_VnBB8fyhdxgy-174">
          <mxGeometry relative="1" as="geometry">
            <mxPoint x="297.7500000000001" y="1652" as="targetPoint" />
          </mxGeometry>
        </mxCell>
        <mxCell id="QuMT_0o_VnBB8fyhdxgy-174" value="inisiasi i = 0" style="rounded=0;whiteSpace=wrap;html=1;" vertex="1" parent="1">
          <mxGeometry x="185.75" y="1632" width="80" height="40" as="geometry" />
        </mxCell>
        <mxCell id="QuMT_0o_VnBB8fyhdxgy-175" value="" style="edgeStyle=orthogonalEdgeStyle;rounded=0;orthogonalLoop=1;jettySize=auto;html=1;" edge="1" parent="1" source="QuMT_0o_VnBB8fyhdxgy-176" target="QuMT_0o_VnBB8fyhdxgy-181">
          <mxGeometry relative="1" as="geometry" />
        </mxCell>
        <mxCell id="QuMT_0o_VnBB8fyhdxgy-176" value="nilai min data array trace ke-i" style="rounded=0;whiteSpace=wrap;html=1;" vertex="1" parent="1">
          <mxGeometry x="296.75" y="1632" width="227" height="40" as="geometry" />
        </mxCell>
        <mxCell id="QuMT_0o_VnBB8fyhdxgy-177" value="" style="edgeStyle=orthogonalEdgeStyle;rounded=0;orthogonalLoop=1;jettySize=auto;html=1;exitX=0.5;exitY=0;exitDx=0;exitDy=0;exitPerimeter=0;" edge="1" parent="1" source="QuMT_0o_VnBB8fyhdxgy-179">
          <mxGeometry relative="1" as="geometry">
            <Array as="points">
              <mxPoint x="355.75" y="1687" />
            </Array>
            <mxPoint x="355.75" y="1672" as="targetPoint" />
          </mxGeometry>
        </mxCell>
        <mxCell id="QuMT_0o_VnBB8fyhdxgy-178" value="" style="edgeStyle=orthogonalEdgeStyle;rounded=0;orthogonalLoop=1;jettySize=auto;html=1;" edge="1" parent="1" source="QuMT_0o_VnBB8fyhdxgy-179" target="QuMT_0o_VnBB8fyhdxgy-184">
          <mxGeometry relative="1" as="geometry" />
        </mxCell>
        <mxCell id="QuMT_0o_VnBB8fyhdxgy-179" value="&lt;font style=&quot;font-size: 10px;&quot;&gt;i &amp;lt; jumlah&lt;/font&gt;&lt;div style=&quot;font-size: 10px;&quot;&gt;&lt;font style=&quot;font-size: 10px;&quot;&gt;traces&lt;/font&gt;&lt;/div&gt;" style="strokeWidth=1;html=1;shape=mxgraph.flowchart.decision;whiteSpace=wrap;" vertex="1" parent="1">
          <mxGeometry x="302.75" y="1687" width="80" height="70" as="geometry" />
        </mxCell>
        <mxCell id="QuMT_0o_VnBB8fyhdxgy-180" value="" style="edgeStyle=orthogonalEdgeStyle;rounded=0;orthogonalLoop=1;jettySize=auto;html=1;" edge="1" parent="1" source="QuMT_0o_VnBB8fyhdxgy-181" target="QuMT_0o_VnBB8fyhdxgy-179">
          <mxGeometry relative="1" as="geometry" />
        </mxCell>
        <mxCell id="QuMT_0o_VnBB8fyhdxgy-181" value="i = i + 1" style="rounded=0;whiteSpace=wrap;html=1;" vertex="1" parent="1">
          <mxGeometry x="453" y="1702" width="65.5" height="40" as="geometry" />
        </mxCell>
        <mxCell id="QuMT_0o_VnBB8fyhdxgy-182" value="Yes" style="text;html=1;align=center;verticalAlign=middle;whiteSpace=wrap;rounded=0;" vertex="1" parent="1">
          <mxGeometry x="352.75" y="1672" width="60" height="30" as="geometry" />
        </mxCell>
        <mxCell id="QuMT_0o_VnBB8fyhdxgy-183" value="" style="edgeStyle=orthogonalEdgeStyle;rounded=0;orthogonalLoop=1;jettySize=auto;html=1;" edge="1" parent="1" source="QuMT_0o_VnBB8fyhdxgy-184" target="QuMT_0o_VnBB8fyhdxgy-185">
          <mxGeometry relative="1" as="geometry" />
        </mxCell>
        <mxCell id="QuMT_0o_VnBB8fyhdxgy-184" value="nilai min" style="shape=parallelogram;html=1;strokeWidth=1;perimeter=parallelogramPerimeter;whiteSpace=wrap;rounded=1;arcSize=12;size=0.23;" vertex="1" parent="1">
          <mxGeometry x="173.25" y="1702" width="105" height="40" as="geometry" />
        </mxCell>
        <mxCell id="QuMT_0o_VnBB8fyhdxgy-185" value="End" style="strokeWidth=1;html=1;shape=mxgraph.flowchart.terminator;whiteSpace=wrap;" vertex="1" parent="1">
          <mxGeometry x="85.75" y="1702" width="80" height="40" as="geometry" />
        </mxCell>
        <mxCell id="QuMT_0o_VnBB8fyhdxgy-186" value="" style="edgeStyle=orthogonalEdgeStyle;rounded=0;orthogonalLoop=1;jettySize=auto;html=1;" edge="1" parent="1" source="QuMT_0o_VnBB8fyhdxgy-187" target="QuMT_0o_VnBB8fyhdxgy-189">
          <mxGeometry relative="1" as="geometry" />
        </mxCell>
        <mxCell id="QuMT_0o_VnBB8fyhdxgy-187" value="start" style="strokeWidth=1;html=1;shape=mxgraph.flowchart.terminator;whiteSpace=wrap;" vertex="1" parent="1">
          <mxGeometry x="82.75" y="1773" width="80" height="40" as="geometry" />
        </mxCell>
        <mxCell id="QuMT_0o_VnBB8fyhdxgy-188" value="" style="edgeStyle=orthogonalEdgeStyle;rounded=0;orthogonalLoop=1;jettySize=auto;html=1;entryX=0;entryY=0.5;entryDx=0;entryDy=0;" edge="1" parent="1" source="QuMT_0o_VnBB8fyhdxgy-189">
          <mxGeometry relative="1" as="geometry">
            <mxPoint x="294.7500000000001" y="1793" as="targetPoint" />
          </mxGeometry>
        </mxCell>
        <mxCell id="QuMT_0o_VnBB8fyhdxgy-189" value="inisiasi i = 0" style="rounded=0;whiteSpace=wrap;html=1;" vertex="1" parent="1">
          <mxGeometry x="182.75" y="1773" width="80" height="40" as="geometry" />
        </mxCell>
        <mxCell id="QuMT_0o_VnBB8fyhdxgy-190" value="" style="edgeStyle=orthogonalEdgeStyle;rounded=0;orthogonalLoop=1;jettySize=auto;html=1;" edge="1" parent="1" source="QuMT_0o_VnBB8fyhdxgy-191" target="QuMT_0o_VnBB8fyhdxgy-196">
          <mxGeometry relative="1" as="geometry" />
        </mxCell>
        <mxCell id="QuMT_0o_VnBB8fyhdxgy-191" value="nilai max data array trace ke-i" style="rounded=0;whiteSpace=wrap;html=1;" vertex="1" parent="1">
          <mxGeometry x="293.75" y="1773" width="227" height="40" as="geometry" />
        </mxCell>
        <mxCell id="QuMT_0o_VnBB8fyhdxgy-192" value="" style="edgeStyle=orthogonalEdgeStyle;rounded=0;orthogonalLoop=1;jettySize=auto;html=1;exitX=0.5;exitY=0;exitDx=0;exitDy=0;exitPerimeter=0;" edge="1" parent="1" source="QuMT_0o_VnBB8fyhdxgy-194">
          <mxGeometry relative="1" as="geometry">
            <Array as="points">
              <mxPoint x="352.75" y="1828" />
            </Array>
            <mxPoint x="352.75" y="1813" as="targetPoint" />
          </mxGeometry>
        </mxCell>
        <mxCell id="QuMT_0o_VnBB8fyhdxgy-193" value="" style="edgeStyle=orthogonalEdgeStyle;rounded=0;orthogonalLoop=1;jettySize=auto;html=1;" edge="1" parent="1" source="QuMT_0o_VnBB8fyhdxgy-194" target="QuMT_0o_VnBB8fyhdxgy-199">
          <mxGeometry relative="1" as="geometry" />
        </mxCell>
        <mxCell id="QuMT_0o_VnBB8fyhdxgy-194" value="&lt;font style=&quot;font-size: 10px;&quot;&gt;i &amp;lt; jumlah&lt;/font&gt;&lt;div style=&quot;font-size: 10px;&quot;&gt;&lt;font style=&quot;font-size: 10px;&quot;&gt;traces&lt;/font&gt;&lt;/div&gt;" style="strokeWidth=1;html=1;shape=mxgraph.flowchart.decision;whiteSpace=wrap;" vertex="1" parent="1">
          <mxGeometry x="299.75" y="1828" width="80" height="70" as="geometry" />
        </mxCell>
        <mxCell id="QuMT_0o_VnBB8fyhdxgy-195" value="" style="edgeStyle=orthogonalEdgeStyle;rounded=0;orthogonalLoop=1;jettySize=auto;html=1;" edge="1" parent="1" source="QuMT_0o_VnBB8fyhdxgy-196" target="QuMT_0o_VnBB8fyhdxgy-194">
          <mxGeometry relative="1" as="geometry" />
        </mxCell>
        <mxCell id="QuMT_0o_VnBB8fyhdxgy-196" value="i = i + 1" style="rounded=0;whiteSpace=wrap;html=1;" vertex="1" parent="1">
          <mxGeometry x="450" y="1843" width="65.5" height="40" as="geometry" />
        </mxCell>
        <mxCell id="QuMT_0o_VnBB8fyhdxgy-197" value="Yes" style="text;html=1;align=center;verticalAlign=middle;whiteSpace=wrap;rounded=0;" vertex="1" parent="1">
          <mxGeometry x="349.75" y="1813" width="60" height="30" as="geometry" />
        </mxCell>
        <mxCell id="QuMT_0o_VnBB8fyhdxgy-198" value="" style="edgeStyle=orthogonalEdgeStyle;rounded=0;orthogonalLoop=1;jettySize=auto;html=1;" edge="1" parent="1" source="QuMT_0o_VnBB8fyhdxgy-199" target="QuMT_0o_VnBB8fyhdxgy-200">
          <mxGeometry relative="1" as="geometry" />
        </mxCell>
        <mxCell id="QuMT_0o_VnBB8fyhdxgy-199" value="nilai max" style="shape=parallelogram;html=1;strokeWidth=1;perimeter=parallelogramPerimeter;whiteSpace=wrap;rounded=1;arcSize=12;size=0.23;" vertex="1" parent="1">
          <mxGeometry x="170.25" y="1843" width="105" height="40" as="geometry" />
        </mxCell>
        <mxCell id="QuMT_0o_VnBB8fyhdxgy-200" value="End" style="strokeWidth=1;html=1;shape=mxgraph.flowchart.terminator;whiteSpace=wrap;" vertex="1" parent="1">
          <mxGeometry x="82.75" y="1843" width="80" height="40" as="geometry" />
        </mxCell>
        <mxCell id="QuMT_0o_VnBB8fyhdxgy-201" value="" style="edgeStyle=orthogonalEdgeStyle;rounded=0;orthogonalLoop=1;jettySize=auto;html=1;" edge="1" parent="1" source="QuMT_0o_VnBB8fyhdxgy-202" target="QuMT_0o_VnBB8fyhdxgy-204">
          <mxGeometry relative="1" as="geometry" />
        </mxCell>
        <mxCell id="QuMT_0o_VnBB8fyhdxgy-202" value="start" style="strokeWidth=1;html=1;shape=mxgraph.flowchart.terminator;whiteSpace=wrap;" vertex="1" parent="1">
          <mxGeometry x="50" y="1951" width="80" height="40" as="geometry" />
        </mxCell>
        <mxCell id="QuMT_0o_VnBB8fyhdxgy-203" value="" style="edgeStyle=orthogonalEdgeStyle;rounded=0;orthogonalLoop=1;jettySize=auto;html=1;" edge="1" parent="1" source="QuMT_0o_VnBB8fyhdxgy-204" target="QuMT_0o_VnBB8fyhdxgy-206">
          <mxGeometry relative="1" as="geometry" />
        </mxCell>
        <mxCell id="QuMT_0o_VnBB8fyhdxgy-204" value="inisiasi i = 0" style="rounded=0;whiteSpace=wrap;html=1;" vertex="1" parent="1">
          <mxGeometry x="150" y="1951" width="80" height="40" as="geometry" />
        </mxCell>
        <mxCell id="QuMT_0o_VnBB8fyhdxgy-205" value="" style="edgeStyle=orthogonalEdgeStyle;rounded=0;orthogonalLoop=1;jettySize=auto;html=1;" edge="1" parent="1" source="QuMT_0o_VnBB8fyhdxgy-206" target="QuMT_0o_VnBB8fyhdxgy-208">
          <mxGeometry relative="1" as="geometry" />
        </mxCell>
        <mxCell id="QuMT_0o_VnBB8fyhdxgy-206" value="&lt;font style=&quot;font-size: 10px;&quot;&gt;i &amp;lt; jumlah&lt;/font&gt;&lt;div style=&quot;font-size: 10px;&quot;&gt;&lt;font style=&quot;font-size: 10px;&quot;&gt;traces&lt;/font&gt;&lt;/div&gt;" style="strokeWidth=1;html=1;shape=mxgraph.flowchart.decision;whiteSpace=wrap;" vertex="1" parent="1">
          <mxGeometry x="260" y="1936" width="70" height="70" as="geometry" />
        </mxCell>
        <mxCell id="QuMT_0o_VnBB8fyhdxgy-207" value="" style="edgeStyle=orthogonalEdgeStyle;rounded=0;orthogonalLoop=1;jettySize=auto;html=1;" edge="1" parent="1" source="QuMT_0o_VnBB8fyhdxgy-208" target="QuMT_0o_VnBB8fyhdxgy-210">
          <mxGeometry relative="1" as="geometry" />
        </mxCell>
        <mxCell id="QuMT_0o_VnBB8fyhdxgy-208" value="perhitungan kurtosis" style="rounded=0;whiteSpace=wrap;html=1;" vertex="1" parent="1">
          <mxGeometry x="355" y="1951" width="115" height="40" as="geometry" />
        </mxCell>
        <mxCell id="QuMT_0o_VnBB8fyhdxgy-209" value="" style="edgeStyle=orthogonalEdgeStyle;rounded=0;orthogonalLoop=1;jettySize=auto;html=1;" edge="1" parent="1" source="QuMT_0o_VnBB8fyhdxgy-210">
          <mxGeometry relative="1" as="geometry">
            <mxPoint x="530" y="2021" as="targetPoint" />
          </mxGeometry>
        </mxCell>
        <mxCell id="QuMT_0o_VnBB8fyhdxgy-210" value="i = i + 1" style="rounded=0;whiteSpace=wrap;html=1;" vertex="1" parent="1">
          <mxGeometry x="500" y="1951" width="60" height="40" as="geometry" />
        </mxCell>
        <mxCell id="QuMT_0o_VnBB8fyhdxgy-211" value="" style="edgeStyle=orthogonalEdgeStyle;rounded=0;orthogonalLoop=1;jettySize=auto;html=1;" edge="1" parent="1" target="QuMT_0o_VnBB8fyhdxgy-213">
          <mxGeometry relative="1" as="geometry">
            <mxPoint x="495" y="2056" as="sourcePoint" />
          </mxGeometry>
        </mxCell>
        <mxCell id="QuMT_0o_VnBB8fyhdxgy-212" value="" style="edgeStyle=orthogonalEdgeStyle;rounded=0;orthogonalLoop=1;jettySize=auto;html=1;" edge="1" parent="1" source="QuMT_0o_VnBB8fyhdxgy-213" target="QuMT_0o_VnBB8fyhdxgy-214">
          <mxGeometry relative="1" as="geometry" />
        </mxCell>
        <mxCell id="QuMT_0o_VnBB8fyhdxgy-213" value="nilai kurtosis" style="shape=parallelogram;html=1;strokeWidth=1;perimeter=parallelogramPerimeter;whiteSpace=wrap;rounded=1;arcSize=12;size=0.23;" vertex="1" parent="1">
          <mxGeometry x="345" y="2036" width="105" height="40" as="geometry" />
        </mxCell>
        <mxCell id="QuMT_0o_VnBB8fyhdxgy-214" value="end" style="strokeWidth=1;html=1;shape=mxgraph.flowchart.terminator;whiteSpace=wrap;" vertex="1" parent="1">
          <mxGeometry x="230" y="2036" width="80" height="40" as="geometry" />
        </mxCell>
        <mxCell id="QuMT_0o_VnBB8fyhdxgy-215" style="edgeStyle=orthogonalEdgeStyle;rounded=0;orthogonalLoop=1;jettySize=auto;html=1;entryX=0.5;entryY=0;entryDx=0;entryDy=0;entryPerimeter=0;" edge="1" parent="1" source="QuMT_0o_VnBB8fyhdxgy-206" target="QuMT_0o_VnBB8fyhdxgy-214">
          <mxGeometry relative="1" as="geometry">
            <Array as="points">
              <mxPoint x="295" y="2021" />
              <mxPoint x="270" y="2021" />
            </Array>
          </mxGeometry>
        </mxCell>
        <mxCell id="QuMT_0o_VnBB8fyhdxgy-216" style="edgeStyle=orthogonalEdgeStyle;rounded=0;orthogonalLoop=1;jettySize=auto;html=1;entryX=0.5;entryY=1;entryDx=0;entryDy=0;entryPerimeter=0;" edge="1" parent="1" target="QuMT_0o_VnBB8fyhdxgy-214">
          <mxGeometry relative="1" as="geometry">
            <Array as="points">
              <mxPoint x="530" y="2101" />
              <mxPoint x="270" y="2101" />
            </Array>
            <mxPoint x="530" y="2091" as="sourcePoint" />
          </mxGeometry>
        </mxCell>
        <mxCell id="QuMT_0o_VnBB8fyhdxgy-217" value="Yes" style="text;html=1;align=center;verticalAlign=middle;whiteSpace=wrap;rounded=0;" vertex="1" parent="1">
          <mxGeometry x="310" y="1936" width="60" height="30" as="geometry" />
        </mxCell>
        <mxCell id="QuMT_0o_VnBB8fyhdxgy-218" value="Tidak" style="text;html=1;align=center;verticalAlign=middle;whiteSpace=wrap;rounded=0;" vertex="1" parent="1">
          <mxGeometry x="285" y="2001" width="60" height="30" as="geometry" />
        </mxCell>
        <mxCell id="QuMT_0o_VnBB8fyhdxgy-219" value="Yes" style="text;html=1;align=center;verticalAlign=middle;whiteSpace=wrap;rounded=0;" vertex="1" parent="1">
          <mxGeometry x="440" y="2031" width="60" height="30" as="geometry" />
        </mxCell>
        <mxCell id="QuMT_0o_VnBB8fyhdxgy-220" value="&lt;font style=&quot;font-size: 10px;&quot;&gt;i &amp;lt; jumlah&lt;/font&gt;&lt;div style=&quot;font-size: 10px;&quot;&gt;&lt;font style=&quot;font-size: 10px;&quot;&gt;traces&lt;/font&gt;&lt;/div&gt;" style="strokeWidth=1;html=1;shape=mxgraph.flowchart.decision;whiteSpace=wrap;" vertex="1" parent="1">
          <mxGeometry x="495" y="2021" width="72" height="70" as="geometry" />
        </mxCell>
        <mxCell id="QuMT_0o_VnBB8fyhdxgy-221" value="" style="edgeStyle=orthogonalEdgeStyle;rounded=0;orthogonalLoop=1;jettySize=auto;html=1;" edge="1" parent="1" source="QuMT_0o_VnBB8fyhdxgy-222" target="QuMT_0o_VnBB8fyhdxgy-224">
          <mxGeometry relative="1" as="geometry" />
        </mxCell>
        <mxCell id="QuMT_0o_VnBB8fyhdxgy-222" value="start" style="strokeWidth=1;html=1;shape=mxgraph.flowchart.terminator;whiteSpace=wrap;" vertex="1" parent="1">
          <mxGeometry x="51.5" y="2273" width="80" height="40" as="geometry" />
        </mxCell>
        <mxCell id="QuMT_0o_VnBB8fyhdxgy-223" value="" style="edgeStyle=orthogonalEdgeStyle;rounded=0;orthogonalLoop=1;jettySize=auto;html=1;" edge="1" parent="1" source="QuMT_0o_VnBB8fyhdxgy-224" target="QuMT_0o_VnBB8fyhdxgy-226">
          <mxGeometry relative="1" as="geometry" />
        </mxCell>
        <mxCell id="QuMT_0o_VnBB8fyhdxgy-224" value="inisiasi i = 0" style="rounded=0;whiteSpace=wrap;html=1;" vertex="1" parent="1">
          <mxGeometry x="151.5" y="2273" width="80" height="40" as="geometry" />
        </mxCell>
        <mxCell id="QuMT_0o_VnBB8fyhdxgy-225" value="" style="edgeStyle=orthogonalEdgeStyle;rounded=0;orthogonalLoop=1;jettySize=auto;html=1;" edge="1" parent="1" source="QuMT_0o_VnBB8fyhdxgy-226" target="QuMT_0o_VnBB8fyhdxgy-228">
          <mxGeometry relative="1" as="geometry" />
        </mxCell>
        <mxCell id="QuMT_0o_VnBB8fyhdxgy-226" value="&lt;font style=&quot;font-size: 10px;&quot;&gt;i &amp;lt; jumlah&lt;/font&gt;&lt;div style=&quot;font-size: 10px;&quot;&gt;&lt;font style=&quot;font-size: 10px;&quot;&gt;traces&lt;/font&gt;&lt;/div&gt;" style="strokeWidth=1;html=1;shape=mxgraph.flowchart.decision;whiteSpace=wrap;" vertex="1" parent="1">
          <mxGeometry x="261.5" y="2258" width="70" height="70" as="geometry" />
        </mxCell>
        <mxCell id="QuMT_0o_VnBB8fyhdxgy-227" value="" style="edgeStyle=orthogonalEdgeStyle;rounded=0;orthogonalLoop=1;jettySize=auto;html=1;" edge="1" parent="1" source="QuMT_0o_VnBB8fyhdxgy-228" target="QuMT_0o_VnBB8fyhdxgy-230">
          <mxGeometry relative="1" as="geometry" />
        </mxCell>
        <mxCell id="QuMT_0o_VnBB8fyhdxgy-228" value="perhitungan skewness" style="rounded=0;whiteSpace=wrap;html=1;" vertex="1" parent="1">
          <mxGeometry x="356.5" y="2273" width="115" height="40" as="geometry" />
        </mxCell>
        <mxCell id="QuMT_0o_VnBB8fyhdxgy-229" value="" style="edgeStyle=orthogonalEdgeStyle;rounded=0;orthogonalLoop=1;jettySize=auto;html=1;" edge="1" parent="1" source="QuMT_0o_VnBB8fyhdxgy-230">
          <mxGeometry relative="1" as="geometry">
            <mxPoint x="531.5" y="2343" as="targetPoint" />
          </mxGeometry>
        </mxCell>
        <mxCell id="QuMT_0o_VnBB8fyhdxgy-230" value="i = i + 1" style="rounded=0;whiteSpace=wrap;html=1;" vertex="1" parent="1">
          <mxGeometry x="501.5" y="2273" width="60" height="40" as="geometry" />
        </mxCell>
        <mxCell id="QuMT_0o_VnBB8fyhdxgy-231" value="" style="edgeStyle=orthogonalEdgeStyle;rounded=0;orthogonalLoop=1;jettySize=auto;html=1;" edge="1" parent="1" target="QuMT_0o_VnBB8fyhdxgy-233">
          <mxGeometry relative="1" as="geometry">
            <mxPoint x="496.5" y="2378" as="sourcePoint" />
          </mxGeometry>
        </mxCell>
        <mxCell id="QuMT_0o_VnBB8fyhdxgy-232" value="" style="edgeStyle=orthogonalEdgeStyle;rounded=0;orthogonalLoop=1;jettySize=auto;html=1;" edge="1" parent="1" source="QuMT_0o_VnBB8fyhdxgy-233" target="QuMT_0o_VnBB8fyhdxgy-234">
          <mxGeometry relative="1" as="geometry" />
        </mxCell>
        <mxCell id="QuMT_0o_VnBB8fyhdxgy-233" value="nilai skewness" style="shape=parallelogram;html=1;strokeWidth=1;perimeter=parallelogramPerimeter;whiteSpace=wrap;rounded=1;arcSize=12;size=0.23;" vertex="1" parent="1">
          <mxGeometry x="346.5" y="2358" width="105" height="40" as="geometry" />
        </mxCell>
        <mxCell id="QuMT_0o_VnBB8fyhdxgy-234" value="end" style="strokeWidth=1;html=1;shape=mxgraph.flowchart.terminator;whiteSpace=wrap;" vertex="1" parent="1">
          <mxGeometry x="231.5" y="2358" width="80" height="40" as="geometry" />
        </mxCell>
        <mxCell id="QuMT_0o_VnBB8fyhdxgy-235" style="edgeStyle=orthogonalEdgeStyle;rounded=0;orthogonalLoop=1;jettySize=auto;html=1;entryX=0.5;entryY=0;entryDx=0;entryDy=0;entryPerimeter=0;" edge="1" parent="1" source="QuMT_0o_VnBB8fyhdxgy-226" target="QuMT_0o_VnBB8fyhdxgy-234">
          <mxGeometry relative="1" as="geometry">
            <Array as="points">
              <mxPoint x="296.5" y="2343" />
              <mxPoint x="271.5" y="2343" />
            </Array>
          </mxGeometry>
        </mxCell>
        <mxCell id="QuMT_0o_VnBB8fyhdxgy-236" style="edgeStyle=orthogonalEdgeStyle;rounded=0;orthogonalLoop=1;jettySize=auto;html=1;entryX=0.5;entryY=1;entryDx=0;entryDy=0;entryPerimeter=0;" edge="1" parent="1" target="QuMT_0o_VnBB8fyhdxgy-234">
          <mxGeometry relative="1" as="geometry">
            <Array as="points">
              <mxPoint x="531.5" y="2423" />
              <mxPoint x="271.5" y="2423" />
            </Array>
            <mxPoint x="531.5" y="2413" as="sourcePoint" />
          </mxGeometry>
        </mxCell>
        <mxCell id="QuMT_0o_VnBB8fyhdxgy-237" value="Yes" style="text;html=1;align=center;verticalAlign=middle;whiteSpace=wrap;rounded=0;" vertex="1" parent="1">
          <mxGeometry x="311.5" y="2258" width="60" height="30" as="geometry" />
        </mxCell>
        <mxCell id="QuMT_0o_VnBB8fyhdxgy-238" value="Tidak" style="text;html=1;align=center;verticalAlign=middle;whiteSpace=wrap;rounded=0;" vertex="1" parent="1">
          <mxGeometry x="286.5" y="2323" width="60" height="30" as="geometry" />
        </mxCell>
        <mxCell id="QuMT_0o_VnBB8fyhdxgy-239" value="Yes" style="text;html=1;align=center;verticalAlign=middle;whiteSpace=wrap;rounded=0;" vertex="1" parent="1">
          <mxGeometry x="441.5" y="2353" width="60" height="30" as="geometry" />
        </mxCell>
        <mxCell id="QuMT_0o_VnBB8fyhdxgy-240" value="&lt;font style=&quot;font-size: 10px;&quot;&gt;i &amp;lt; jumlah&lt;/font&gt;&lt;div style=&quot;font-size: 10px;&quot;&gt;&lt;font style=&quot;font-size: 10px;&quot;&gt;traces&lt;/font&gt;&lt;/div&gt;" style="strokeWidth=1;html=1;shape=mxgraph.flowchart.decision;whiteSpace=wrap;" vertex="1" parent="1">
          <mxGeometry x="496.5" y="2343" width="72" height="70" as="geometry" />
        </mxCell>
      </root>
    </mxGraphModel>
  </diagram>
</mxfile>
